<svg xmlns="http://www.w3.org/2000/svg" width="648.391" height="665.703" viewBox="0 -0.195748 648.391 666.094"  xmlns:xlink="http://www.w3.org/1999/xlink"  preserveAspectRatio="xMidYMid meet"><rect id="svgEditorBackground" x="0" y="0" width="648.3909912109375" height="665.7030029296875" style="fill: none; stroke: none;"></rect><defs id="svgEditorDefs"><polygon id="svgEditorShapeDefs" style="fill:khaki;stroke:black;vector-effect:non-scaling-stroke;stroke-width:1px;"></polygon><linearGradient gradientUnits="objectBoundingBox" id="lgrd2-peachpuff-sienna-v" spreadMethod="pad" x1="0%" x2="0%" y1="0%" y2="100%"><stop offset="0%" style="stop-color:peachpuff;  stop-opacity:0.84;"></stop><stop offset="100%" style="stop-color:sienna;  stop-opacity:1"></stop></linearGradient><linearGradient gradientUnits="objectBoundingBox" id="lgrd2-peachpuff-sienna-h" spreadMethod="pad" x1="0%" x2="100%" y1="0%" y2="0%"><stop offset="0%" style="stop-color:peachpuff;  stop-opacity:1;"></stop><stop offset="100%" style="stop-color:sienna;  stop-opacity:1"></stop></linearGradient><linearGradient gradientUnits="objectBoundingBox" id="lgrd2-black-white" spreadMethod="pad" x1="0%" x2="100%" y1="0%" y2="100%"><stop offset="0%" stop-color="black"></stop><stop offset="100%" stop-color="white"></stop></linearGradient></defs><path fill="#FFF" d="M338.5039978027344,662.0640258789062h-28.600006103515625c-155.44400024414062,0,-229.5449981689453,-1.13702392578125,-257.427001953125,-1.56597900390625c-6.697998046875,-0.09600830078125,-10.819999694824219,-0.17401123046875,-12.885002136230469,-0.17401123046875c-12.329999923706055,0,-29.68400001525879,-9.2340087890625,-29.68400001525879,-29.76800537109375l-0.029999732971191406,-6.39300537109375c-0.08798789978027344,-13.416015625,-0.27298831939697266,-45.0030517578125,-0.27298831939697266,-70.16302490234375c0,-27.66400146484375,-0.14700031280517578,-45.87799072265625,-0.19299983978271484,-50.75l-0.015000343322753906,-1.329986572265625v-1.126007080078125l-0.02299976348876953,-1.19500732421875c0.02299976348876953,-5.032012939453125,0.09300041198730469,-37.4849853515625,0.09300041198730469,-70.79598999023438c0,-30.407012939453125,0.2629995346069336,-64.197998046875,0.3400001525878906,-74.156005859375c-0.19999980926513672,-0.165985107421875,-0.38700008392333984,-0.332000732421875,-0.5570001602172852,-0.49798583984375c-0.2239999771118164,-0.220001220703125,-2.3199996948242188,-2.186004638671875,-2.7059998512268066,-2.510009765625c-1.4079999923706055,-1.05999755859375,-1.9800000190734863,-2.23199462890625,-1.9800000190734863,-3.91400146484375c0,-13.334014892578125,4.322999954223633,-19.829986572265625,8.352999687194824,-24.907989501953125c1.2760000228881836,-1.56500244140625,2.73799991607666,-3.040008544921875,4.3769989013671875,-4.3699951171875c-2.947000503540039,-0.029998779296875,-5.468000411987305,-0.07000732421875,-6.853000640869141,-0.1199951171875l-1.0200004577636719,-0.0150146484375c-2.993000030517578,0,-5.329999923706055,-2.084014892578125,-5.329999923706055,-4.730010986328125c0,-10.9739990234375,-0.059999942779541016,-24.850006103515625,-0.15400004386901855,-41.28399658203125c-0.13199996948242188,-23.7760009765625,-0.29399991035461426,-52.85600280761719,-0.29399991035461426,-86.10600280761719c0,-40.67399597167969,0.3250000476837158,-126.31199645996094,0.49499988555908203,-145.25c0.20900249481201172,-19.992000579833984,15.832001686096191,-35.66699981689453,35.56200408935547,-35.66699981689453c5.090000152587891,0,15.740001678466797,-0.1119999885559082,31.499996185302734,-0.26999998092651367c46.33000183105469,-0.47700023651123047,132.54299926757812,-1.369999885559082,252.29200744628906,-1.369999885559082c119.7559814453125,0,206.7659912109375,0.8940000534057617,253.49700927734375,1.369999885559082c15.89398193359375,0.15700006484985352,26.62799072265625,0.26999998092651367,31.71002197265625,0.26999998092651367c19.7459716796875,0,35.3699951171875,15.673999786376953,35.56201171875,35.66999816894531c0.16998291015625,18.937999725341797,0.48602294921875,104.57498931884766,0.48602294921875,145.25c0,33.25,-0.15399169921875,62.33000183105469,-0.2769775390625,86.10400390625c-0.0999755859375,16.436004638671875,-0.15997314453125,30.30999755859375,-0.15997314453125,41.285003662109375c0,2.64599609375,-2.344970703125,4.730010986328125,-5.34002685546875,4.730010986328125c-0.39398193359375,0,-3.85797119140625,0.063995361328125,-8.28997802734375,0.1199951171875c1.68597412109375,1.376007080078125,3.23199462890625,2.9530029296875,4.60198974609375,4.6400146484375c4.02001953125,5.06201171875,8.34600830078125,11.55499267578125,8.34600830078125,24.899993896484375c0,1.65399169921875,-0.56402587890625,2.82598876953125,-1.823974609375,3.769989013671875c-0.53497314453125,0.470001220703125,-2.64599609375,2.43701171875,-2.94000244140625,2.722991943359375c-0.0999755859375,0.089996337890625,-0.1920166015625,0.1820068359375,-0.2860107421875,0.256011962890625c0.093994140625,11.167999267578125,0.44000244140625,58.7869873046875,0.44000244140625,118.6929931640625c0,47.7239990234375,-0.52398681640625,157.15399169921875,-0.52398681640625,157.15399169921875c0,20.52001953125,-17.35498046875,29.75299072265625,-29.6619873046875,29.75299072265625c-2.08001708984375,0,-6.20001220703125,0.0780029296875,-12.89300537109375,0.17401123046875c-27.88299560546875,0.42999267578125,-101.9840087890625,1.5670166015625,-257.4360046386719,1.5670166015625"></path><path fill="#424143" d="M323.492 7.285c161.53 0 265.516 1.64 285.208 1.64 16.613 0 31.734 13.218 31.92 32.05.186 19.746.486 105.43.486 145.203 0 56.225-.434 100.538-.434 127.41 0 .584-.766 1.075-1.7 1.075-.51 0-6.08.09-12.298.182h-.008c-1.842 0-1.33-3.597-1.33-3.597H575.65v2.742s27.14.12 36.158.673c9.574.604 16.73 5.84 20.61 10.692 4.124 5.132 7.558 10.852 7.558 22.62 0 .745-.115.64-.674 1.1-.254.23-2.62 2.438-2.938 2.74-.355.33-.898.656-1.416.927l-.04.016c.063 7.46.466 56.707.466 120.658 0 47.728-.533 157.133-.533 157.133 0 17.95-15.198 26.147-26.026 26.147-10.812 0-77.998 1.71-270.303 1.71h-28.6c-192.304 0-259.5-1.71-270.335-1.71-10.812 0-26.026-8.197-26.026-26.148 0-2.33-.294-44.608-.294-76.548 0-31.965-.21-51.32-.21-52.082 0-.758-.022-1.354-.022-1.632 0-.267.093-35.376.093-71.483 0-33.064.31-70.177.356-76.197h.008c-.107-.04-.192-.105-.216-.12-.54-.25-1.083-.562-1.438-.925-.317-.3-2.69-2.51-2.94-2.727-.556-.455-.672-.34-.672-1.105 0-11.763 3.442-17.478 7.55-22.637 3.41-4.242 9.373-8.48 17.23-10.128h-.03.008c3.875-1.156 40.357-1.226 40.357-1.226s.285-2-.93-2.017c-1.113 0-49.173-.476-49.173-.476s.534 3.58-1.005 3.58c-6.257 0-12.274-.165-12.785-.165-.944 0-1.702-.49-1.702-1.075 0-26.872-.45-71.186-.45-127.41 0-39.772.303-125.457.504-145.202.184-18.832 15.297-32.05 31.91-32.05 19.7 0 122.255-1.64 283.792-1.64m0-7.285C203.735 0 117.5.896 71.162 1.376c-15.754.167-26.373.27-31.462.27C17.943 1.647.727 18.9.51 40.9.318 59.778 0 145.415 0 186.178c0 33.266.163 62.346.286 86.137.093 16.42.17 30.295.17 41.273 0 4.544 3.72 8.156 8.546 8.354-4.88 6.496-8.067 13.623-8.067 25.79 0 2.84 1.13 5.123 3.34 6.75.148.136 1.184 1.095 1.888 1.753-.225 28.442-.333 52.84-.333 72.57 0 33.23-.07 65.617-.085 70.77v.713l.008.596.016 1.036.007 1.36c.04 4.866.193 23.072.193 50.722 0 25.16.186 56.73.263 70.154l.03 6.393c0 23.058 19.484 33.433 33.313 33.433 2.065 0 6.18.066 12.83.158 27.906.423 102.023 1.563 257.505 1.563h28.602c155.48 0 229.59-1.14 257.496-1.562 6.643-.09 10.75-.157 12.807-.157 13.83 0 33.312-10.375 33.312-33.434 0-1.042.525-109.933.525-157.134 0-53.71-.285-97.776-.426-117.108.73-.692 1.64-1.523 1.89-1.75 2.017-1.498 3.138-3.757 3.138-6.583 0-12.982-3.86-20.29-8.252-26.026 5.02-.008 8.95-3.682 8.95-8.36 0-10.98.067-24.855.153-41.274.13-23.79.285-52.87.285-86.137 0-38.19-.3-125.07-.494-145.28-.21-22-17.426-39.25-39.197-39.25-5.083 0-15.802-.105-31.69-.272C530.267.896 443.257 0 323.493 0"></path><path fill="none" stroke="#424143" stroke-width="5.362" stroke-linejoin="round" stroke-miterlimit="2" d="M634.895 351.77s.48 52.153.48 121.642c0 47.728-.533 157.14-.533 157.14 0 17.944-15.2 26.142-26.027 26.142-10.818 0-77.998 1.72-270.303 1.72h-28.61c-192.295 0-259.49-1.72-270.318-1.72s-26.034-8.197-26.034-26.14c0-2.33-.046-3.4-.046-7.474 0-.908.016-1.105.016-1.627 0-.543-.27-35.508-.27-67.455 0-31.965-.194-51.312-.194-52.082 0-.762-.03-1.346-.03-1.632 0-.267.092-35.368.092-71.476 0-36.092.364-77.037.364-77.037h621.413z"></path><path fill="#424143" d="M89.423 385.914c30.566 0 55.33 24.77 55.33 55.33s-24.764 55.313-55.33 55.313S34.1 471.807 34.1 441.245s24.757-55.33 55.323-55.33m0 7.668c-26.28 0-47.65 21.393-47.65 47.662 0 26.276 21.37 47.654 47.65 47.654 26.29 0 47.66-21.38 47.66-47.655 0-26.27-21.37-47.662-47.66-47.662"></path><path fill="#FFF" d="M627.518 314.96s10.525-.297 11.453-.297 1.702-.49 1.702-1.08c0-26.87.434-71.18.434-127.405 0-39.772-.3-125.457-.486-145.202-.186-18.833-15.307-32.043-31.92-32.043-19.69 0-123.678-1.647-285.208-1.647-161.537 0-264.093 1.647-283.785 1.647-16.62 0-31.74 13.21-31.92 32.043-.2 19.745-.51 105.43-.51 145.202 0 56.225.457 100.534.457 127.406 0 .588.758 1.08 1.702 1.08"></path><path fill="none" stroke="#424143" stroke-width="5.362" stroke-linejoin="round" stroke-miterlimit="2" d="M627.518 314.96s10.525-.297 11.453-.297 1.702-.49 1.702-1.08c0-26.87.434-71.18.434-127.405 0-39.772-.3-125.457-.486-145.202-.186-18.833-15.307-32.043-31.92-32.043-19.69 0-123.678-1.647-285.208-1.647-161.537 0-264.093 1.647-283.785 1.647-16.62 0-31.74 13.21-31.92 32.043-.2 19.745-.51 105.43-.51 145.202 0 56.225.457 100.534.457 127.406 0 .588.758 1.08 1.702 1.08"></path><path fill="#424143" d="M626.952 314.768s.248-97.51.248-136.722c0-39.217-.084-116.903-.324-130.376-.248-14.154-11.346-24.78-24.805-24.94-13.61-.15-102.888-2.396-278.578-2.396-175.69 0-263.552 2.247-277.148 2.397-13.466.16-24.556 10.786-24.812 24.94-.248 13.473-.34 91.16-.34 130.376 0 39.212.263 136.8.263 136.8h1.71l.06-3.594h602.12l.022 3.547 1.585-.032z"></path><path fill="none" stroke="#424143" stroke-width="5.362" stroke-linejoin="round" stroke-miterlimit="2" d="M626.952 314.768s.248-97.51.248-136.722c0-39.217-.084-116.903-.324-130.376-.248-14.154-11.346-24.78-24.805-24.94-13.61-.15-102.888-2.396-278.578-2.396-175.69 0-263.552 2.247-277.148 2.397-13.466.16-24.556 10.786-24.812 24.94-.248 13.473-.34 91.16-.34 130.376 0 39.212.263 136.8.263 136.8h1.71l.06-3.594h602.12l.022 3.547 1.585-.032z"></path><path fill="#FFF" d="M8.222 347.73c0-11.768 3.434-17.486 7.548-22.634 4.293-5.37 12.685-10.716 23.814-10.852 7.835-.104 12.97-.12 33.613-.506v41.58H20.21c-1.67 0-1.718-.017-2.25-.296-1.385-.75-4.495-2.428-4.696-2.533-.534-.255-1.075-.573-1.43-.93-.318-.3-2.7-2.517-2.948-2.722-.564-.465-.664-.346-.664-1.108"></path><path fill="none" stroke="#424143" stroke-width="5.362" stroke-linejoin="round" stroke-miterlimit="2" d="M73.197 346.16H10.72c-2.026 0-2.36 2.228-2.36 2.228m-.138-.658c0-11.768 3.434-17.486 7.548-22.634 4.293-5.37 12.685-10.716 23.814-10.852 7.835-.104 12.97-.12 33.613-.506v41.58H20.21c-1.67 0-1.718-.017-2.25-.296-1.385-.75-4.495-2.428-4.696-2.533-.534-.255-1.075-.573-1.43-.93-.318-.3-2.7-2.517-2.948-2.722-.564-.465-.664-.346-.664-1.108z"></path><path fill="#FFF" d="M639.969970703125,347.9700012207031c0,-11.766998291015625,-3.427001953125,-17.485992431640625,-7.5579833984375,-22.618011474609375c-4.28497314453125,-5.3800048828125,-12.676025390625,-10.71600341796875,-23.80499267578125,-10.881988525390625c-7.83599853515625,-0.10400390625,-12.9630126953125,-0.10400390625,-33.5980224609375,-0.5v41.5880126953125h52.97003173828125c1.66400146484375,0,1.71697998046875,-0.02301025390625,2.23602294921875,-0.302001953125c1.39801025390625,-0.74200439453125,4.5159912109375,-2.420013427734375,4.7249755859375,-2.510009765625c0.5260009765625,-0.269989013671875,1.06201171875,-0.60400390625,1.4169921875,-0.928009033203125c0.31597900390625,-0.298004150390625,2.69000244140625,-2.51800537109375,2.94500732421875,-2.738006591796875c0.5679931640625,-0.467987060546875,0.6669921875,-0.363006591796875,0.6669921875,-1.1099853515625"></path><path fill="none" stroke="#424143" stroke-width="5.362" stroke-linejoin="round" stroke-miterlimit="2" d="M575.21 346.156h62.47c2.033 0 2.367 2.235 2.367 2.235m-.078-.42c0-11.767-3.427-17.486-7.558-22.618-4.285-5.38-12.676-10.716-23.805-10.882-7.836-.104-12.963-.104-33.598-.5v41.588h52.97c1.664 0 1.717-.023 2.236-.302 1.398-.742 4.516-2.42 4.725-2.51.526-.27 1.062-.604 1.417-.928.316-.298 2.69-2.518 2.945-2.738.568-.468.667-.363.667-1.11z"></path><path fill="none" stroke="#010101" stroke-width="1.917" stroke-linejoin="round" stroke-miterlimit="2" d="M 473.405 376.83 c 0 -1.28699 -1.04501 -2.336 -2.35199 -2.336 h -293.7 c -1.28999 0 -2.358 1.04999 -2.358 2.336 v 221.475 c 0 1.28998 1.067 2.34198 2.358 2.34198 h 293.7 c 1.30701 0 2.35199 -1.04999 2.35199 -2.34198 v -221.475 Z" transform="matrix(1 0 0 0.645257 0 129.082)"></path><path fill="#BDBEC0" d="M 174.995 375.83 c 0 -1.29999 1.067 -2.367 2.358 -2.367 h 293.7 c 1.30701 0 2.35199 1.06601 2.35199 2.366 v 221.46 c 0 1.29199 -1.04501 2.34497 -2.35199 2.34497 h -293.7 c -1.28999 0 -2.358 -1.05298 -2.358 -2.34399 v -221.46 Z" transform="matrix(1 0 0 0.648621 0 127.599)"></path><path fill="none" stroke="#424143" stroke-width="5.362" stroke-linejoin="round" stroke-miterlimit="2" d="M 174.995 375.83 c 0 -1.29999 1.067 -2.367 2.358 -2.367 h 293.7 c 1.30701 0 2.35199 1.06601 2.35199 2.366 v 221.46 c 0 1.29199 -1.04501 2.34497 -2.35199 2.34497 h -293.7 c -1.28999 0 -2.358 -1.05298 -2.358 -2.34399 v -221.46 Z" transform="matrix(1 0 0 0.646102 0 128.309)"></path><path fill="#FFF" d="M625.3359985351562,311.24798583984375s-48.26202392578125,0.375,-49.46002197265625,0.47601318359375c-0.97601318359375,0.09698486328125,-0.93701171875,1.428009033203125,-0.93701171875,2.011993408203125l0.05999755859375,41.587005615234375h-501.8019714355469s0.1320037841796875,-40.99200439453125,0.1320037841796875,-41.587005615234375c0,-0.584014892578125,0.02300262451171875,-1.915008544921875,-0.9280014038085938,-2.011993408203125c-1.2220001220703125,-0.100006103515625,-49.17399978637695,-0.47601318359375,-49.17399978637695,-0.47601318359375h602.1099853515625Z" style="stroke-width:2px;"></path><path fill="none" stroke="#010101" stroke-width="1.917" stroke-linejoin="round" stroke-miterlimit="2" d="M73.32 346.1"></path><path fill="none" stroke="#424143" stroke-width="5.362" stroke-linejoin="round" stroke-miterlimit="2" d="M73.31999969482422,346.1000061035156h501.8900146484375"></path><path d="M324.3349914550781,29.447999954223633c5.8699951171875,0,10.641998291015625,4.67500114440918,10.641998291015625,10.660001754760742c0,5.867000579833984,-4.769989013671875,10.65999984741211,-10.641998291015625,10.65999984741211c-5.980010986328125,0,-10.657012939453125,-4.792999267578125,-10.657012939453125,-10.65999984741211c0,-5.9850006103515625,4.678009033203125,-10.65999984741211,10.657012939453125,-10.65999984741211" style="stroke:red;fill:red;"></path><path fill="#BDBEC0" d="M509.624 297.342c0 1.814-1.492 3.295-3.295 3.295H142.255c-1.825 0-3.303-1.48-3.303-3.295V77.662c0-1.797 1.478-3.294 3.303-3.294H506.33c1.802 0 3.294 1.497 3.294 3.295v219.68z"></path><path fill="none" stroke="#424143" stroke-width="5.362" stroke-linejoin="round" stroke-miterlimit="2" d="M509.624 297.342c0 1.814-1.492 3.295-3.295 3.295H142.255c-1.825 0-3.303-1.48-3.303-3.295V77.662c0-1.797 1.478-3.294 3.303-3.294H506.33c1.802 0 3.294 1.497 3.294 3.295v219.68z"></path><path fill="none" stroke="#424143" stroke-width="5.362" stroke-linejoin="round" d="M73.32 329.574s-34.757 1.122-37.04 1.242c-2.165.135-3.572 1.72-3.572 3.8 0 1.45-.557 11.54-.557 11.54m542.852-16.582s34.758 1.122 37.055 1.242c2.143.135 3.557 1.72 3.557 3.8 0 1.45.54 11.54.54 11.54"></path><path fill="none" stroke="#424143" stroke-width="5.362" stroke-miterlimit="2" d="M608.622 330.967l3.373.132s2.854-.086 3.248 3.096l-.092 4.185c0 .275-.216.54-.788.54h-5.678s-.564.02-.865-.32c-.312-.354-.32-.76-.32-.76v-5.797s.102-1.126 1.122-1.076z"></path><path fill="#BDBEC0" d="M641.083 198.02c-.016 23.964-.115 45.326-.217 63.89h-13.78c.022-16.885.1-38.11.114-63.89h13.883z"></path><path fill="none" stroke="#424143" stroke-width="5.362" stroke-linejoin="round" stroke-miterlimit="2" d="M641.083 198.02c-.016 23.964-.115 45.326-.217 63.89h-13.78c.022-16.885.1-38.11.114-63.89h13.883z"></path><path fill="none" stroke="#424143" stroke-width="5.362" stroke-linejoin="round" stroke-miterlimit="2" d="M575.643 313.99l36.174.673c9.535 1.02 16.73 5.835 20.596 10.692 4.13 5.132 7.557 10.852 7.557 22.62 0 .74-.1.64-.666 1.1-.254.23-2.63 2.445-2.945 2.74-.356.33-.892.656-1.417.935l-.03.008c.06 7.46.472 56.707.472 120.658 0 47.724-.533 157.14-.533 157.14 0 17.944-15.207 26.142-26.027 26.142-10.826 0-78.006 1.71-270.31 1.71h-28.61c-192.304 0-259.49-1.71-270.32-1.71S13.55 648.5 13.55 630.558c0-2.34-.046-3.4-.046-7.474 0-.908.016-1.105.016-1.63 0-.54-.27-35.513-.27-67.452 0-31.965-.202-51.324-.202-52.082 0-.762-.016-1.354-.016-1.632 0-.27.085-35.376.085-71.483 0-33.068.317-70.18.356-76.19h.008c-.107-.046-.192-.112-.216-.127-.534-.25-1.075-.562-1.438-.925-.31-.3-2.69-2.514-2.94-2.727-.563-.46-.664-.34-.664-1.11 0-11.76 3.434-17.478 7.54-22.633 3.412-4.246 9.274-9.115 17.233-10.128 11.013-1.412 40.326-1.23 40.326-1.23s.047-2.003-.927-2.003l-49.167-.483s.743 3.596-1.485 3.58c-6.233-.097-11.802-.166-12.304-.166-.936 0-1.702-.49-1.702-1.08 0-26.867-.45-71.18-.45-127.405 0-39.773.303-125.458.504-145.203C7.974 22.143 23.095 8.933 39.7 8.933c19.7 0 122.263-1.647 283.784-1.647 161.538 0 265.524 1.647 285.215 1.647 16.612 0 31.74 13.21 31.91 32.043.202 19.745.503 105.43.503 145.202 0 56.225-.44 100.538-.44 127.406 0 .588-.767 1.08-1.71 1.08-.502 0-6.047.088-12.28.18-2.144.017-1.347-3.596-1.347-3.596h-49.693v2.742z"></path><path fill="#FFF" d="M627.65 197.988c-1.278 0-1.603.437-1.603 1.245v25.944c0 .728.473.967 1.238.967l12.598.016c1.223 0 1.16-.406 1.16-.81 0-.42.094-25.8.094-26.585 0-.522-.248-.746-.873-.746-.65 0-12.615-.032-12.615-.032"></path><path fill="none" stroke="#424143" stroke-width="5.362" stroke-linejoin="round" stroke-miterlimit="2" d="M627.65 197.988c-1.278 0-1.603.437-1.603 1.245v25.944c0 .728.473.967 1.238.967l12.598.016c1.223 0 1.16-.406 1.16-.81 0-.42.094-25.8.094-26.585 0-.522-.248-.746-.873-.746-.65 0-12.615-.032-12.615-.032z"></path><rect x="18.583869934100107" y="531.6019897460499" style="fill:url(#lgrd2-peachpuff-sienna-v);stroke:black;stroke-width:3.26px;" id="e2_rectangle" width="605.0272775103" height="108.4093244686"></rect><rect x="195.136" y="537.797" style="fill:white;stroke:black;stroke-width:1px;" id="e4_rectangle" width="157.968" height="35.104" transform="matrix(1.34415 0 0 1 -108.276 -1.03247)" ry="0" rx="0"></rect><rect x="360.331" y="535.732" style="fill:white;stroke:black;stroke-width:1px;" id="e5_rectangle" width="135.254" height="36.1364" transform="matrix(0.92053 0 0 1 44.3346 9.99307e-11)" ry="0" rx="0"></rect><rect x="506.9420834576" y="535.7318667861" style="fill:white;stroke:black;stroke-width:1.28px;" id="e6_rectangle" width="111.5067337391" height="36.1364414895"></rect><text style="fill:black;font-family:Arial;font-size:20px;" x="38.2008" y="548.122" id="e7_texte"></text><text style="fill:black; font-family: 'Arial Black'; font-size: 16.5195px;" x="45.4281" y="551.219" id="e8_texte" transform="matrix(1 0 0 1 -4.12988 8.25976)">cafdf</text><text style="fill:black;font-family:Arial Black;font-size:16.5195px;" x="162.097" y="541.927" id="e9_texte" transform="matrix(1 0 0 1 10.3247 18.5845)">Species Name</text><text style="fill:black;font-family:Arial Black;font-size:16.5195px;" x="382.013" y="541.927" id="e10_texte" transform="matrix(1 0 0 1 6.19482 15.487)">Length(cm)</text><text style="fill:black;font-family:Arial Black;font-size:16.5195px;" x="515.202" y="539.862" id="e11_texte" transform="matrix(1 0 0 1 -4.12988 19.6169)">Length(in)</text><rect x="26.8436465254" y="537.7968062998" style="fill:white;stroke:black;stroke-width:0.93px;" id="e12_rectangle" width="120.7989615506" height="34.0715019758"></rect><text style="fill:black;font-family:Arial;font-size:20px;" x="45.4281" y="549.154" id="e13_texte"></text><text style="fill:black;font-family:Arial Black;font-size:16.5195px;" x="37.1683" y="561.544" id="e14_texte" >Category</text><path d="M 4.34739 1.02128 v -1.5 a 2 2 0 0 0 -2 -2 h -4 a 2 2 0 0 0 -2 2 v 3 a 2 2 0 0 0 2 2 h 4 a 2 2 0 0 0 2 -2 Z" style="fill:khaki; stroke:black; vector-effect:non-scaling-stroke;stroke-width:1px;" id="e15_shape" transform="matrix(14.8603 0 0 6.56194 87.2431 601.368)"></path><path d="M 3.88177 1.3917 v -1.5 a 2 2 0 0 0 -2 -2 h -4 a 2 2 0 0 0 -2 2 v 3 a 2 2 0 0 0 2 2 h 4 a 2 2 0 0 0 2 -2 Z" style="fill:khaki; stroke:black; vector-effect:non-scaling-stroke;stroke-width:1px;" id="e16_shape" transform="matrix(26.9038 0 0 6.8911 266.976 596.672)"></path><path d="M 4.21622 0.694755 v -1.5 a 2 2 0 0 0 -2 -2 h -4 a 2 2 0 0 0 -2 2 v 3 a 2 2 0 0 0 2 2 h 4 a 2 2 0 0 0 2 -2 Z" style="fill:khaki; stroke:black; vector-effect:non-scaling-stroke;stroke-width:1px;" id="e17_shape" transform="matrix(14.3255 0 0 6.79923 437.25 602.829)"></path><path d="M 4 0 v -1.5 a 2 2 0 0 0 -2 -2 h -4 a 2 2 0 0 0 -2 2 v 3 a 2 2 0 0 0 2 2 h 4 a 2 2 0 0 0 2 -2 Z" style="fill:khaki; stroke:black; vector-effect:non-scaling-stroke;stroke-width:1px;" id="e18_shape" transform="matrix(12.6478 0 0 6.44797 563.728 605.811)"></path><line id="e19_line" x1="74.133440975" y1="357.193836174" x2="576.470488773" y2="358.300305443" style="stroke:black;fill:none;stroke-width:2.17px;"></line><text style="fill:black;font-family:Arial;font-size:20px;" x="241.21" y="353.874" id="e20_texte"></text></svg>