<?xml version="1.0" encoding="utf-8"?>
<!-- Generator: Adobe Illustrator 16.0.0, SVG Export Plug-In . SVG Version: 6.00 Build 0)  -->
<!DOCTYPE svg PUBLIC "-//W3C//DTD SVG 1.1//EN" "http://www.w3.org/Graphics/SVG/1.1/DTD/svg11.dtd">
<svg version="1.1" id="Layer_1" xmlns="http://www.w3.org/2000/svg" xmlns:xlink="http://www.w3.org/1999/xlink" x="0px" y="0px"
	 width="163.807px" height="78.016px" viewBox="0 0 163.807 78.016" enable-background="new 0 0 163.807 78.016"
	 xml:space="preserve">
<path fill="none" stroke="#000000" stroke-width="4" stroke-linecap="round" stroke-miterlimit="10" d="M20.514,34.386
	c4.778,11.334,19.555-18.334-5.667-9.778c-25.223,8.556-3.445,20.667,6.333,20.667s113.449,0,130.116,0
	c16.668,0,8.557-33.223-1.111-19.334c-9.666,13.89,4.334,15.334,3.89,8.89"/>
<line fill="none" stroke="#000000" stroke-width="2.6668" stroke-miterlimit="10" x1="36.403" y1="33.83" x2="39.514" y2="45.274"/>
<line fill="none" stroke="#000000" stroke-width="2.6668" stroke-miterlimit="10" x1="134.85" y1="33.83" x2="131.627" y2="45.274"/>
<line fill="none" stroke="#000000" stroke-width="2.6668" stroke-miterlimit="10" x1="122.406" y1="33.83" x2="119.85" y2="45.274"/>
<line fill="none" stroke="#000000" stroke-width="2.6668" stroke-miterlimit="10" x1="102.96" y1="33.83" x2="104.405" y2="45.274"/>
<line fill="none" stroke="#000000" stroke-width="2.6668" stroke-miterlimit="10" x1="89.405" y1="33.83" x2="87.738" y2="45.274"/>
<line fill="none" stroke="#000000" stroke-width="2.6668" stroke-miterlimit="10" x1="76.182" y1="33.83" x2="73.959" y2="45.274"/>
<line fill="none" stroke="#000000" stroke-width="2.6668" stroke-miterlimit="10" x1="58.292" y1="33.83" x2="60.514" y2="45.274"/>
<line fill="none" stroke="#000000" stroke-width="2.6668" stroke-miterlimit="10" x1="47.07" y1="45.274" x2="48.292" y2="33.83"/>
<line fill="none" stroke="#000000" stroke-width="2.6668" stroke-miterlimit="10" x1="63.959" y1="33.83" x2="86.015" y2="7.273"/>
<line fill="none" stroke="#000000" stroke-width="2.6668" stroke-miterlimit="10" x1="86.015" y1="7.273" x2="108.739" y2="33.83"/>
<line fill="none" stroke="#000000" stroke-width="2.6668" stroke-miterlimit="10" x1="86.015" y1="7.273" x2="86.015" y2="1.829"/>
<path fill="none" stroke="#000000" stroke-width="4" stroke-linecap="round" stroke-miterlimit="10" d="M63.043,45.274
	c0,0,21.042,2.216,25.053,12.164"/>
<path fill="none" stroke="#000000" stroke-width="4" stroke-linecap="round" stroke-miterlimit="10" d="M104.405,45.274
	c0,0-21.256,5.478-16.309,12.164c4.947,6.686,9.969,15.813-1.167,17.25c-11.136,1.436-7.722-14.566-1.722-7.316"/>
<line fill="none" stroke="#000000" stroke-width="2.667" stroke-linecap="round" stroke-miterlimit="10" x1="34.846" y1="33.83" x2="137.184" y2="33.83"/>
</svg>
