<?xml version="1.0" encoding="utf-8"?>
<!-- Generator: Adobe Illustrator 16.0.0, SVG Export Plug-In . SVG Version: 6.00 Build 0)  -->
<!DOCTYPE svg PUBLIC "-//W3C//DTD SVG 1.1//EN" "http://www.w3.org/Graphics/SVG/1.1/DTD/svg11.dtd">
<svg version="1.1" id="Layer_1" xmlns="http://www.w3.org/2000/svg" xmlns:xlink="http://www.w3.org/1999/xlink" x="0px" y="0px"
	 width="115.549px" height="69.705px" viewBox="0 0 115.549 69.705" enable-background="new 0 0 115.549 69.705"
	 xml:space="preserve">
<g>
	<polygon fill="#662D91" stroke="#000000" stroke-width="2" stroke-linejoin="bevel" stroke-miterlimit="10" points="74.532,67.659 
		11.532,47.279 3.441,21.177 68.989,34.202 	"/>
	<polygon fill="#662D91" stroke="#000000" stroke-width="2" stroke-linejoin="bevel" stroke-miterlimit="10" points="
		104.365,59.325 74.532,67.659 68.989,34.202 112.322,27.645 	"/>
	<polygon stroke="#000000" stroke-width="3" stroke-linejoin="bevel" stroke-miterlimit="10" points="68.989,34.202 3.441,21.177 
		47.989,12.095 112.322,27.645 	"/>
	<polygon stroke="#000000" stroke-width="3" stroke-linejoin="bevel" stroke-miterlimit="10" points="69.056,33.778 3.507,20.753 
		48.056,11.671 112.389,27.222 	"/>
	<g>
		<defs>
			<polygon id="SVGID_1_" points="68.734,32.728 4.691,20 5.559,-1.751 48.507,-5.008 105.177,5.306 111.072,26.319 			"/>
		</defs>
		<clipPath id="SVGID_2_">
			<use xlink:href="#SVGID_1_"  overflow="visible"/>
		</clipPath>
		<g clip-path="url(#SVGID_2_)">
			
				<ellipse transform="matrix(0.851 0.5252 -0.5252 0.851 10.2833 -25.6304)" fill="#FCEE21" stroke="#FBB03B" stroke-width="0.977" stroke-linejoin="bevel" stroke-miterlimit="10" cx="50.304" cy="5.305" rx="3.094" ry="2.693"/>
			
				<ellipse transform="matrix(0.975 -0.2221 0.2221 0.975 -2.549 11.3103)" fill="#FCEE21" stroke="#FBB03B" stroke-width="0.977" stroke-linejoin="bevel" stroke-miterlimit="10" cx="49.024" cy="16.991" rx="3.094" ry="2.695"/>
			
				<ellipse transform="matrix(0.2221 0.975 -0.975 0.2221 56.6613 -42.9637)" fill="#FCEE21" stroke="#FBB03B" stroke-width="0.977" stroke-linejoin="bevel" stroke-miterlimit="10" cx="55.255" cy="14.026" rx="3.094" ry="2.694"/>
			
				<ellipse transform="matrix(0.8466 0.5322 -0.5322 0.8466 12.957 -28.1542)" fill="#FCEE21" stroke="#FBB03B" stroke-width="0.977" stroke-linejoin="bevel" stroke-miterlimit="10" cx="55.322" cy="8.401" rx="3.094" ry="2.694"/>
			
				<ellipse transform="matrix(-0.6473 0.7622 -0.7622 -0.6473 76.938 -0.421)" fill="#FCEE21" stroke="#FBB03B" stroke-width="0.977" stroke-linejoin="bevel" stroke-miterlimit="10" cx="38.566" cy="17.589" rx="3.093" ry="2.694"/>
			
				<ellipse transform="matrix(-0.6472 0.7623 -0.7623 -0.6472 78.7608 -8.8777)" fill="#FCEE21" stroke="#FBB03B" stroke-width="0.977" stroke-linejoin="bevel" stroke-miterlimit="10" cx="41.435" cy="13.785" rx="3.094" ry="2.694"/>
			
				<ellipse transform="matrix(-0.9973 0.0729 -0.0729 -0.9973 92.4441 17.7813)" fill="#FCEE21" stroke="#FBB03B" stroke-width="0.977" stroke-linejoin="bevel" stroke-miterlimit="10" cx="45.897" cy="10.578" rx="3.094" ry="2.694"/>
			
				<ellipse transform="matrix(-0.6536 0.7568 -0.7568 -0.6536 93.7718 -19.9366)" fill="#FCEE21" stroke="#FBB03B" stroke-width="0.977" stroke-linejoin="bevel" stroke-miterlimit="10" cx="51.448" cy="11.491" rx="3.094" ry="2.693"/>
			
				<ellipse transform="matrix(0.2379 0.9713 -0.9713 0.2379 59.2983 -38.4467)" fill="#FCEE21" stroke="#FBB03B" stroke-width="0.977" stroke-linejoin="bevel" stroke-miterlimit="10" cx="54.15" cy="18.565" rx="3.095" ry="2.694"/>
			
				<ellipse transform="matrix(0.2378 0.9713 -0.9713 0.2378 66.3717 -44.6306)" fill="#FCEE21" stroke="#FBB03B" stroke-width="0.977" stroke-linejoin="bevel" stroke-miterlimit="10" cx="61.624" cy="19.976" rx="3.094" ry="2.694"/>
			
				<ellipse transform="matrix(0.238 0.9713 -0.9713 0.238 56.4169 -34.4341)" fill="#FCEE21" stroke="#FBB03B" stroke-width="0.977" stroke-linejoin="bevel" stroke-miterlimit="10" cx="50.154" cy="18.738" rx="3.094" ry="2.694"/>
			
				<ellipse transform="matrix(0.8506 0.5259 -0.5259 0.8506 20.4005 -19.8005)" fill="#FCEE21" stroke="#FBB03B" stroke-width="0.977" stroke-linejoin="bevel" stroke-miterlimit="10" cx="45.038" cy="25.993" rx="3.094" ry="2.694"/>
			
				<ellipse transform="matrix(-0.5259 0.8506 -0.8506 -0.5259 102.7031 -0.7411)" fill="#FCEE21" stroke="#FBB03B" stroke-width="0.977" stroke-linejoin="bevel" stroke-miterlimit="10" cx="51.558" cy="28.253" rx="3.094" ry="2.694"/>
			
				<ellipse transform="matrix(0.2298 0.9732 -0.9732 0.2298 66.4291 -35.356)" fill="#FCEE21" stroke="#FBB03B" stroke-width="0.977" stroke-linejoin="bevel" stroke-miterlimit="10" cx="55.552" cy="24.292" rx="3.094" ry="2.694"/>
			
				<ellipse transform="matrix(-0.996 0.089 -0.089 -0.996 114.8395 41.3807)" fill="#FCEE21" stroke="#FBB03B" stroke-width="0.977" stroke-linejoin="bevel" stroke-miterlimit="10" cx="56.497" cy="23.251" rx="3.094" ry="2.694"/>
			
				<ellipse transform="matrix(-0.6478 0.7618 -0.7618 -0.6478 93.2547 -16.8598)" fill="#FCEE21" stroke="#FBB03B" stroke-width="0.977" stroke-linejoin="bevel" stroke-miterlimit="10" cx="50.524" cy="13.125" rx="3.094" ry="2.694"/>
			
				<ellipse transform="matrix(-0.2847 -0.9586 0.9586 -0.2847 54.3681 58.1616)" fill="#FCEE21" stroke="#FBB03B" stroke-width="0.977" stroke-linejoin="bevel" stroke-miterlimit="10" cx="48.883" cy="8.797" rx="3.094" ry="2.694"/>
			
				<ellipse transform="matrix(0.8509 0.5253 -0.5253 0.8509 20.4444 -19.4301)" fill="#FCEE21" stroke="#FBB03B" stroke-width="0.977" stroke-linejoin="bevel" stroke-miterlimit="10" cx="44.451" cy="26.3" rx="3.094" ry="2.694"/>
			
				<ellipse transform="matrix(0.8465 0.5323 -0.5323 0.8465 23.24 -21.8219)" fill="#FCEE21" stroke="#FBB03B" stroke-width="0.977" stroke-linejoin="bevel" stroke-miterlimit="10" cx="49.468" cy="29.397" rx="3.094" ry="2.694"/>
			
				<ellipse transform="matrix(-0.6474 0.7621 -0.7621 -0.6474 102.7339 8.4572)" fill="#FCEE21" stroke="#FBB03B" stroke-width="0.977" stroke-linejoin="bevel" stroke-miterlimit="10" cx="49.411" cy="27.993" rx="3.094" ry="2.694"/>
			
				<ellipse transform="matrix(0.0729 0.9973 -0.9973 0.0729 60.1784 -14.8025)" fill="#FCEE21" stroke="#FBB03B" stroke-width="0.977" stroke-linejoin="bevel" stroke-miterlimit="10" cx="38.051" cy="24.968" rx="3.094" ry="2.694"/>
			
				<ellipse transform="matrix(-0.2846 -0.9587 0.9587 -0.2846 26.7128 79.5214)" fill="#FCEE21" stroke="#FBB03B" stroke-width="0.977" stroke-linejoin="bevel" stroke-miterlimit="10" cx="43.029" cy="29.793" rx="3.094" ry="2.695"/>
			
				<ellipse transform="matrix(-0.3 -0.9539 0.9539 -0.3 29.5505 65.4079)" fill="#FCEE21" stroke="#FBB03B" stroke-width="0.977" stroke-linejoin="bevel" stroke-miterlimit="10" cx="38.772" cy="21.862" rx="3.094" ry="2.694"/>
			
				<ellipse transform="matrix(-0.8828 -0.4697 0.4697 -0.8828 82.7066 48.3588)" fill="#FCEE21" stroke="#FBB03B" stroke-width="0.977" stroke-linejoin="bevel" stroke-miterlimit="10" cx="47.386" cy="13.862" rx="3.093" ry="2.694"/>
			
				<ellipse transform="matrix(0.4923 0.8704 -0.8704 0.4923 43.4671 -49.8745)" fill="#FCEE21" stroke="#FBB03B" stroke-width="0.977" stroke-linejoin="bevel" stroke-miterlimit="10" cx="64.489" cy="12.325" rx="3.094" ry="2.694"/>
			
				<ellipse transform="matrix(0.9614 0.2752 -0.2752 0.9614 8.2697 -15.0421)" fill="#FCEE21" stroke="#FBB03B" stroke-width="0.977" stroke-linejoin="bevel" stroke-miterlimit="10" cx="57.734" cy="21.946" rx="3.094" ry="2.694"/>
			
				<ellipse transform="matrix(-0.2755 0.9613 -0.9613 -0.2755 103.9131 -33.6096)" fill="#FCEE21" stroke="#FBB03B" stroke-width="0.977" stroke-linejoin="bevel" stroke-miterlimit="10" cx="64.622" cy="22.353" rx="3.094" ry="2.694"/>
			
				<ellipse transform="matrix(0.485 0.8745 -0.8745 0.485 49.9727 -49.9448)" fill="#FCEE21" stroke="#FBB03B" stroke-width="0.977" stroke-linejoin="bevel" stroke-miterlimit="10" cx="67.392" cy="17.457" rx="3.094" ry="2.693"/>
			
				<ellipse transform="matrix(-0.9345 0.3559 -0.3559 -0.9345 137.3486 7.1283)" fill="#FCEE21" stroke="#FBB03B" stroke-width="0.977" stroke-linejoin="bevel" stroke-miterlimit="10" cx="68.019" cy="16.199" rx="3.094" ry="2.694"/>
			
				<ellipse transform="matrix(-0.909 -0.4168 0.4168 -0.909 104.7068 52.5054)" fill="#FCEE21" stroke="#FBB03B" stroke-width="0.977" stroke-linejoin="bevel" stroke-miterlimit="10" cx="58.086" cy="14.821" rx="3.094" ry="2.694"/>
			
				<ellipse transform="matrix(-0.9089 -0.417 0.417 -0.9089 108.6505 44.2837)" fill="#FCEE21" stroke="#FBB03B" stroke-width="0.977" stroke-linejoin="bevel" stroke-miterlimit="10" cx="59.163" cy="10.273" rx="3.093" ry="2.694"/>
			
				<ellipse transform="matrix(-0.9375 0.348 -0.348 -0.9375 127.4785 13.6953)" fill="#FCEE21" stroke="#FBB03B" stroke-width="0.977" stroke-linejoin="bevel" stroke-miterlimit="10" cx="62.509" cy="18.296" rx="3.094" ry="2.694"/>
			
				<ellipse transform="matrix(-0.2599 0.9656 -0.9656 -0.2599 102.3513 -26.8522)" fill="#FCEE21" stroke="#FBB03B" stroke-width="0.977" stroke-linejoin="bevel" stroke-miterlimit="10" cx="61.466" cy="25.796" rx="3.094" ry="2.694"/>
			
				<ellipse transform="matrix(-0.2597 0.9657 -0.9657 -0.2597 96.1126 -25.6333)" fill="#FCEE21" stroke="#FBB03B" stroke-width="0.977" stroke-linejoin="bevel" stroke-miterlimit="10" cx="57.881" cy="24.022" rx="3.094" ry="2.695"/>
			
				<ellipse transform="matrix(-0.9348 0.3551 -0.3551 -0.9348 124.7011 15.6825)" fill="#FCEE21" stroke="#FBB03B" stroke-width="0.977" stroke-linejoin="bevel" stroke-miterlimit="10" cx="60.912" cy="19.283" rx="3.094" ry="2.694"/>
			
				<ellipse transform="matrix(-0.9348 0.3553 -0.3553 -0.9348 162.3782 9.7288)" fill="#FCEE21" stroke="#FBB03B" stroke-width="0.977" stroke-linejoin="bevel" stroke-miterlimit="10" cx="80.296" cy="19.772" rx="3.094" ry="2.693"/>
			
				<ellipse transform="matrix(0.2128 -0.9771 0.9771 0.2128 34.0999 71.7231)" fill="#FCEE21" stroke="#FBB03B" stroke-width="0.977" stroke-linejoin="bevel" stroke-miterlimit="10" cx="61.56" cy="14.7" rx="3.094" ry="2.694"/>
			
				<ellipse transform="matrix(0.2378 0.9713 -0.9713 0.2378 102.4697 -69.0862)" fill="#FCEE21" stroke="#FBB03B" stroke-width="0.977" stroke-linejoin="bevel" stroke-miterlimit="10" cx="95.256" cy="30.75" rx="3.094" ry="2.694"/>
			
				<ellipse transform="matrix(0.4923 0.8704 -0.8704 0.4923 69.9184 -73.6786)" fill="#FCEE21" stroke="#FBB03B" stroke-width="0.977" stroke-linejoin="bevel" stroke-miterlimit="10" cx="98.121" cy="23.099" rx="3.094" ry="2.694"/>
			
				<ellipse transform="matrix(0.4852 0.8744 -0.8744 0.4852 76.6926 -73.8035)" fill="#FCEE21" stroke="#FBB03B" stroke-width="0.977" stroke-linejoin="bevel" stroke-miterlimit="10" cx="101.024" cy="28.229" rx="3.094" ry="2.694"/>
			
				<ellipse transform="matrix(-0.9345 0.3559 -0.3559 -0.9345 206.246 16.0055)" fill="#FCEE21" stroke="#FBB03B" stroke-width="0.977" stroke-linejoin="bevel" stroke-miterlimit="10" cx="101.651" cy="26.972" rx="3.094" ry="2.694"/>
			
				<ellipse transform="matrix(-0.9345 0.3559 -0.3559 -0.9345 211.3319 5.3177)" fill="#FCEE21" stroke="#FBB03B" stroke-width="0.977" stroke-linejoin="bevel" stroke-miterlimit="10" cx="105.177" cy="22.099" rx="3.094" ry="2.694"/>
			
				<ellipse transform="matrix(-0.9375 0.3479 -0.3479 -0.9375 196.3899 22.8785)" fill="#FCEE21" stroke="#FBB03B" stroke-width="0.977" stroke-linejoin="bevel" stroke-miterlimit="10" cx="96.141" cy="29.069" rx="3.094" ry="2.693"/>
			
				<ellipse transform="matrix(-0.9348 0.3553 -0.3553 -0.9348 193.5984 24.5647)" fill="#FCEE21" stroke="#FBB03B" stroke-width="0.977" stroke-linejoin="bevel" stroke-miterlimit="10" cx="94.544" cy="30.056" rx="3.094" ry="2.694"/>
			
				<ellipse transform="matrix(0.2128 -0.9771 0.9771 0.2128 50.0505 113.0673)" fill="#FCEE21" stroke="#FBB03B" stroke-width="0.977" stroke-linejoin="bevel" stroke-miterlimit="10" cx="95.193" cy="25.473" rx="3.094" ry="2.694"/>
			
				<ellipse transform="matrix(0.2128 -0.9771 0.9771 0.2128 20.2855 60.0908)" fill="#FCEE21" stroke="#FBB03B" stroke-width="0.977" stroke-linejoin="bevel" stroke-miterlimit="10" cx="47.434" cy="17.457" rx="3.094" ry="2.696"/>
			
				<ellipse transform="matrix(-0.547 -0.8371 0.8371 -0.547 118.8961 115.502)" fill="#FCEE21" stroke="#FBB03B" stroke-width="0.977" stroke-linejoin="bevel" stroke-miterlimit="10" cx="90.698" cy="25.583" rx="3.094" ry="2.694"/>
			
				<ellipse transform="matrix(0.2377 0.9713 -0.9713 0.2377 50.5088 -27.9612)" fill="#FCEE21" stroke="#FBB03B" stroke-width="0.977" stroke-linejoin="bevel" stroke-miterlimit="10" cx="43.069" cy="18.199" rx="3.094" ry="2.694"/>
			
				<ellipse transform="matrix(0.2377 0.9713 -0.9713 0.2377 42.3069 -12.0013)" fill="#FCEE21" stroke="#FBB03B" stroke-width="0.977" stroke-linejoin="bevel" stroke-miterlimit="10" cx="28.799" cy="20.953" rx="3.094" ry="2.693"/>
			
				<ellipse transform="matrix(0.2379 0.9713 -0.9713 0.2379 38.9194 -7.4457)" fill="#FCEE21" stroke="#FBB03B" stroke-width="0.977" stroke-linejoin="bevel" stroke-miterlimit="10" cx="24.205" cy="21.079" rx="3.095" ry="2.694"/>
			
				<ellipse transform="matrix(-0.996 0.0889 -0.0889 -0.996 92.6859 41.6445)" fill="#FCEE21" stroke="#FBB03B" stroke-width="0.977" stroke-linejoin="bevel" stroke-miterlimit="10" cx="45.416" cy="22.885" rx="3.094" ry="2.694"/>
			
				<ellipse transform="matrix(-0.6479 0.7617 -0.7617 -0.6479 74.7194 -9.0181)" fill="#FCEE21" stroke="#FBB03B" stroke-width="0.977" stroke-linejoin="bevel" stroke-miterlimit="10" cx="39.444" cy="12.759" rx="3.094" ry="2.693"/>
			
				<ellipse transform="matrix(-0.3847 0.923 -0.923 -0.3847 47.7218 9.441)" fill="#FCEE21" stroke="#FBB03B" stroke-width="0.977" stroke-linejoin="bevel" stroke-miterlimit="10" cx="20.714" cy="20.625" rx="3.094" ry="2.694"/>
			
				<ellipse transform="matrix(-0.3925 0.9198 -0.9198 -0.3925 49.6619 19.3325)" fill="#FCEE21" stroke="#FBB03B" stroke-width="0.977" stroke-linejoin="bevel" stroke-miterlimit="10" cx="18.446" cy="26.067" rx="3.094" ry="2.694"/>
			
				<ellipse transform="matrix(-0.9735 0.2288 -0.2288 -0.9735 44.7137 23.0063)" fill="#FCEE21" stroke="#FBB03B" stroke-width="0.977" stroke-linejoin="bevel" stroke-miterlimit="10" cx="21.023" cy="14.096" rx="3.094" ry="2.694"/>
			
				<ellipse transform="matrix(-0.9734 0.229 -0.229 -0.9734 37.7088 18.6057)" fill="#FCEE21" stroke="#FBB03B" stroke-width="0.977" stroke-linejoin="bevel" stroke-miterlimit="10" cx="17.775" cy="11.491" rx="3.094" ry="2.694"/>
			
				<ellipse transform="matrix(-0.2289 -0.9735 0.9735 -0.2289 1.5544 35.4374)" fill="#FCEE21" stroke="#FBB03B" stroke-width="0.977" stroke-linejoin="bevel" stroke-miterlimit="10" cx="14.813" cy="17.103" rx="3.093" ry="2.694"/>
			
				<ellipse transform="matrix(-0.8502 -0.5264 0.5264 -0.8502 15.3909 49.8372)" fill="#FCEE21" stroke="#FBB03B" stroke-width="0.977" stroke-linejoin="bevel" stroke-miterlimit="10" cx="14.786" cy="22.729" rx="3.093" ry="2.694"/>
			
				<ellipse transform="matrix(-0.8543 -0.5198 0.5198 -0.8543 12.6803 47.7028)" fill="#FCEE21" stroke="#FBB03B" stroke-width="0.977" stroke-linejoin="bevel" stroke-miterlimit="10" cx="13.026" cy="22.074" rx="3.094" ry="2.694"/>
			
				<ellipse transform="matrix(0.9018 -0.4322 0.4322 0.9018 -6.8712 9.3072)" fill="#FCEE21" stroke="#FBB03B" stroke-width="0.977" stroke-linejoin="bevel" stroke-miterlimit="10" cx="17.042" cy="19.771" rx="3.093" ry="2.694"/>
			
				<ellipse transform="matrix(-0.8542 -0.52 0.52 -0.8542 19.0199 29.4811)" fill="#FCEE21" stroke="#FBB03B" stroke-width="0.977" stroke-linejoin="bevel" stroke-miterlimit="10" cx="13.644" cy="12.074" rx="3.094" ry="2.694"/>
			
				<ellipse transform="matrix(-0.8543 -0.5198 0.5198 -0.8543 13.602 37.3329)" fill="#FCEE21" stroke="#FBB03B" stroke-width="0.977" stroke-linejoin="bevel" stroke-miterlimit="10" cx="12.034" cy="16.76" rx="3.094" ry="2.694"/>
			
				<ellipse transform="matrix(-0.6479 0.7617 -0.7617 -0.6479 67.3246 5.2808)" fill="#FCEE21" stroke="#FBB03B" stroke-width="0.977" stroke-linejoin="bevel" stroke-miterlimit="10" cx="32.442" cy="18.2" rx="3.094" ry="2.694"/>
			
				<ellipse transform="matrix(-0.7618 -0.6478 0.6478 -0.7618 70.8905 64.5296)" fill="#FCEE21" stroke="#FBB03B" stroke-width="0.977" stroke-linejoin="bevel" stroke-miterlimit="10" cx="47.31" cy="19.231" rx="3.094" ry="2.694"/>
			
				<ellipse transform="matrix(-0.9967 0.0807 -0.0807 -0.9967 103.0027 43.3912)" fill="#FCEE21" stroke="#FBB03B" stroke-width="0.977" stroke-linejoin="bevel" stroke-miterlimit="10" cx="50.625" cy="23.776" rx="3.094" ry="2.694"/>
			
				<ellipse transform="matrix(0.8507 0.5257 -0.5257 0.8507 24.5468 -22.9352)" fill="#FCEE21" stroke="#FBB03B" stroke-width="0.977" stroke-linejoin="bevel" stroke-miterlimit="10" cx="52.643" cy="31.739" rx="3.094" ry="2.694"/>
			
				<ellipse transform="matrix(-0.5256 0.8507 -0.8507 -0.5256 119.1814 1.5355)" fill="#FCEE21" stroke="#FBB03B" stroke-width="0.977" stroke-linejoin="bevel" stroke-miterlimit="10" cx="59.163" cy="33.998" rx="3.094" ry="2.694"/>
			
				<ellipse transform="matrix(0.2297 0.9733 -0.9733 0.2297 77.8865 -38.3304)" fill="#FCEE21" stroke="#FBB03B" stroke-width="0.977" stroke-linejoin="bevel" stroke-miterlimit="10" cx="63.157" cy="30.037" rx="3.093" ry="2.694"/>
			
				<ellipse transform="matrix(-0.996 0.089 -0.089 -0.996 108.3797 52.4293)" fill="#FCEE21" stroke="#FBB03B" stroke-width="0.977" stroke-linejoin="bevel" stroke-miterlimit="10" cx="53.021" cy="28.631" rx="3.094" ry="2.694"/>
			
				<ellipse transform="matrix(-0.9967 0.0806 -0.0806 -0.9967 118.651 54.2501)" fill="#FCEE21" stroke="#FBB03B" stroke-width="0.977" stroke-linejoin="bevel" stroke-miterlimit="10" cx="58.23" cy="29.521" rx="3.094" ry="2.694"/>
			
				<ellipse transform="matrix(-0.2127 0.9771 -0.9771 -0.2127 108.5568 -38.5291)" fill="#FCEE21" stroke="#FBB03B" stroke-width="0.977" stroke-linejoin="bevel" stroke-miterlimit="10" cx="69.8" cy="24.469" rx="3.094" ry="2.694"/>
			
				<ellipse transform="matrix(-0.2209 0.9753 -0.9753 -0.2209 101.2945 -29.5529)" fill="#FCEE21" stroke="#FBB03B" stroke-width="0.977" stroke-linejoin="bevel" stroke-miterlimit="10" cx="62.451" cy="25.681" rx="3.094" ry="2.694"/>
			
				<ellipse transform="matrix(-0.934 -0.3573 0.3573 -0.934 114.3137 71.4419)" fill="#FCEE21" stroke="#FBB03B" stroke-width="0.977" stroke-linejoin="bevel" stroke-miterlimit="10" cx="63.756" cy="25.161" rx="3.094" ry="2.695"/>
			
				<ellipse transform="matrix(0.0604 0.9982 -0.9982 0.0604 89.9735 -57.8823)" fill="#FCEE21" stroke="#FBB03B" stroke-width="0.977" stroke-linejoin="bevel" stroke-miterlimit="10" cx="75.733" cy="18.852" rx="3.094" ry="2.694"/>
			
				<ellipse transform="matrix(-0.9924 -0.1228 0.1228 -0.9924 84.5193 49.1338)" fill="#FCEE21" stroke="#FBB03B" stroke-width="0.977" stroke-linejoin="bevel" stroke-miterlimit="10" cx="43.773" cy="21.963" rx="3.094" ry="2.693"/>
			
				<ellipse transform="matrix(-0.9924 -0.1228 0.1228 -0.9924 77.9263 55.8806)" fill="#FCEE21" stroke="#FBB03B" stroke-width="0.977" stroke-linejoin="bevel" stroke-miterlimit="10" cx="40.685" cy="25.539" rx="3.094" ry="2.694"/>
			
				<ellipse transform="matrix(-0.9924 -0.1228 0.1228 -0.9924 58.7029 50.8209)" fill="#FCEE21" stroke="#FBB03B" stroke-width="0.977" stroke-linejoin="bevel" stroke-miterlimit="10" cx="30.917" cy="23.602" rx="3.094" ry="2.695"/>
			
				<ellipse transform="matrix(-0.7937 0.6083 -0.6083 -0.7937 78.4433 -4.9879)" fill="#FCEE21" stroke="#FBB03B" stroke-width="0.977" stroke-linejoin="bevel" stroke-miterlimit="10" cx="40.067" cy="10.807" rx="3.094" ry="2.694"/>
			
				<ellipse transform="matrix(-0.6085 -0.7936 0.7936 -0.6085 44.5473 54.1764)" fill="#FCEE21" stroke="#FBB03B" stroke-width="0.977" stroke-linejoin="bevel" stroke-miterlimit="10" cx="35.639" cy="16.099" rx="3.094" ry="2.694"/>
			
				<ellipse transform="matrix(-0.9914 -0.1311 0.1311 -0.9914 72.7318 47.2692)" fill="#FCEE21" stroke="#FBB03B" stroke-width="0.977" stroke-linejoin="bevel" stroke-miterlimit="10" cx="37.922" cy="21.24" rx="3.094" ry="2.694"/>
			
				<ellipse transform="matrix(0.8763 -0.4818 0.4818 0.8763 -1.7475 23.8606)" fill="#FCEE21" stroke="#FBB03B" stroke-width="0.977" stroke-linejoin="bevel" stroke-miterlimit="10" cx="45.582" cy="15.333" rx="3.094" ry="2.695"/>
			
				<ellipse transform="matrix(0.2789 -0.9603 0.9603 0.2789 12.8056 50.6887)" fill="#FCEE21" stroke="#FBB03B" stroke-width="0.977" stroke-linejoin="bevel" stroke-miterlimit="10" cx="40.155" cy="16.817" rx="3.093" ry="2.693"/>
			
				<ellipse transform="matrix(-0.6211 -0.7838 0.7838 -0.6211 47.3118 45.8987)" fill="#FCEE21" stroke="#FBB03B" stroke-width="0.977" stroke-linejoin="bevel" stroke-miterlimit="10" cx="34.751" cy="11.512" rx="3.094" ry="2.694"/>
			
				<ellipse transform="matrix(-0.6211 -0.7838 0.7838 -0.6211 54.509 45.7338)" fill="#FCEE21" stroke="#FBB03B" stroke-width="0.977" stroke-linejoin="bevel" stroke-miterlimit="10" cx="38.311" cy="9.689" rx="3.094" ry="2.695"/>
			
				<ellipse transform="matrix(0.4633 -0.8862 0.8862 0.4633 17.5174 43.0517)" fill="#FCEE21" stroke="#FBB03B" stroke-width="0.977" stroke-linejoin="bevel" stroke-miterlimit="10" cx="44.302" cy="7.063" rx="3.094" ry="2.695"/>
			
				<ellipse transform="matrix(0.2714 -0.9625 0.9625 0.2714 14.987 49.6897)" fill="#FCEE21" stroke="#FBB03B" stroke-width="0.977" stroke-linejoin="bevel" stroke-miterlimit="10" cx="40.314" cy="14.946" rx="3.094" ry="2.694"/>
			
				<ellipse transform="matrix(0.6584 0.7527 -0.7527 0.6584 28.5922 -26.608)" fill="#FCEE21" stroke="#FBB03B" stroke-width="0.977" stroke-linejoin="bevel" stroke-miterlimit="10" cx="43.61" cy="18.196" rx="3.093" ry="2.695"/>
			
				<ellipse transform="matrix(0.9983 0.059 -0.059 0.9983 0.8402 -2.5073)" fill="#FCEE21" stroke="#FBB03B" stroke-width="0.977" stroke-linejoin="bevel" stroke-miterlimit="10" cx="42.86" cy="12.969" rx="3.094" ry="2.693"/>
			
				<ellipse transform="matrix(0.9983 0.059 -0.059 0.9983 0.5772 -2.4058)" fill="#FCEE21" stroke="#FBB03B" stroke-width="0.977" stroke-linejoin="bevel" stroke-miterlimit="10" cx="41.011" cy="8.566" rx="3.094" ry="2.693"/>
			
				<ellipse transform="matrix(-0.8104 -0.5858 0.5858 -0.8104 38.0166 55.2902)" fill="#FCEE21" stroke="#FBB03B" stroke-width="0.977" stroke-linejoin="bevel" stroke-miterlimit="10" cx="27.954" cy="21.494" rx="3.094" ry="2.694"/>
			
				<ellipse transform="matrix(-0.8053 -0.5929 0.5929 -0.8053 31.1452 46.308)" fill="#FCEE21" stroke="#FBB03B" stroke-width="0.977" stroke-linejoin="bevel" stroke-miterlimit="10" cx="23.176" cy="18.04" rx="3.093" ry="2.694"/>
			
				<ellipse transform="matrix(0.7011 -0.7131 0.7131 0.7011 -6.951 22.3067)" fill="#FCEE21" stroke="#FBB03B" stroke-width="0.977" stroke-linejoin="bevel" stroke-miterlimit="10" cx="23.131" cy="19.444" rx="3.094" ry="2.695"/>
			
				<ellipse fill="#FCEE21" stroke="#FBB03B" stroke-width="0.977" stroke-linejoin="bevel" stroke-miterlimit="10" cx="32.734" cy="16.557" rx="3.094" ry="2.694"/>
			
				<ellipse transform="matrix(0.7071 -0.7071 0.7071 0.7071 -2.7914 23.7434)" fill="#FCEE21" stroke="#FBB03B" stroke-width="0.977" stroke-linejoin="bevel" stroke-miterlimit="10" cx="27.265" cy="15.241" rx="3.094" ry="2.694"/>
			
				<ellipse transform="matrix(0.214 0.9768 -0.9768 0.214 40.9824 -14.7014)" fill="#FCEE21" stroke="#FBB03B" stroke-width="0.977" stroke-linejoin="bevel" stroke-miterlimit="10" cx="29.626" cy="18.115" rx="3.094" ry="2.695"/>
			
				<ellipse transform="matrix(0.214 0.9768 -0.9768 0.214 65.0102 -42.2227)" fill="#FCEE21" stroke="#FBB03B" stroke-width="0.977" stroke-linejoin="bevel" stroke-miterlimit="10" cx="58.743" cy="19.287" rx="3.094" ry="2.695"/>
			
				<ellipse transform="matrix(0.214 0.9768 -0.9768 0.214 65.16 -55.077)" fill="#FCEE21" stroke="#FBB03B" stroke-width="0.977" stroke-linejoin="bevel" stroke-miterlimit="10" cx="66.804" cy="12.951" rx="3.094" ry="2.695"/>
			
				<ellipse transform="matrix(0.8461 0.533 -0.533 0.8461 11.8667 -14.7563)" fill="#FCEE21" stroke="#FBB03B" stroke-width="0.977" stroke-linejoin="bevel" stroke-miterlimit="10" cx="31.489" cy="13.173" rx="3.094" ry="2.693"/>
			
				<ellipse transform="matrix(-0.9784 0.2066 -0.2066 -0.9784 73.52 41.9514)" fill="#FCEE21" stroke="#FBB03B" stroke-width="0.977" stroke-linejoin="bevel" stroke-miterlimit="10" cx="34.57" cy="24.814" rx="3.094" ry="2.693"/>
			
				<ellipse transform="matrix(-0.9784 0.2067 -0.2067 -0.9784 72.6069 34.0421)" fill="#FCEE21" stroke="#FBB03B" stroke-width="0.977" stroke-linejoin="bevel" stroke-miterlimit="10" cx="34.525" cy="20.814" rx="3.094" ry="2.694"/>
			
				<ellipse transform="matrix(0.8541 -0.52 0.52 0.8541 -9.7605 22.1477)" fill="#FCEE21" stroke="#FBB03B" stroke-width="0.977" stroke-linejoin="bevel" stroke-miterlimit="10" cx="34.603" cy="28.474" rx="3.094" ry="2.693"/>
			
				<ellipse transform="matrix(-0.471 -0.8821 0.8821 -0.471 4.2206 43.0281)" fill="#FCEE21" stroke="#FBB03B" stroke-width="0.977" stroke-linejoin="bevel" stroke-miterlimit="10" cx="15.012" cy="20.249" rx="3.094" ry="2.695"/>
			
				<ellipse transform="matrix(-0.471 -0.8821 0.8821 -0.471 13.8467 42.9708)" fill="#FCEE21" stroke="#FBB03B" stroke-width="0.977" stroke-linejoin="bevel" stroke-miterlimit="10" cx="19.808" cy="17.333" rx="3.094" ry="2.695"/>
			
				<ellipse transform="matrix(-0.4709 -0.8822 0.8822 -0.4709 10.8253 32.012)" fill="#FCEE21" stroke="#FBB03B" stroke-width="0.977" stroke-linejoin="bevel" stroke-miterlimit="10" cx="15.012" cy="12.76" rx="3.094" ry="2.695"/>
			
				<ellipse transform="matrix(-0.9841 -0.1775 0.1775 -0.9841 36.8441 54.62)" fill="#FCEE21" stroke="#FBB03B" stroke-width="0.977" stroke-linejoin="bevel" stroke-miterlimit="10" cx="20.866" cy="25.662" rx="3.094" ry="2.694"/>
			
				<ellipse transform="matrix(-0.687 -0.7266 0.7266 -0.687 21.8305 54.7173)" fill="#FCEE21" stroke="#FBB03B" stroke-width="0.977" stroke-linejoin="bevel" stroke-miterlimit="10" cx="22.699" cy="22.657" rx="3.094" ry="2.694"/>
			
				<ellipse transform="matrix(0.1865 -0.9825 0.9825 0.1865 -1.9282 48.8588)" fill="#FCEE21" stroke="#FBB03B" stroke-width="0.977" stroke-linejoin="bevel" stroke-miterlimit="10" cx="28.54" cy="25.594" rx="3.094" ry="2.695"/>
			
				<ellipse transform="matrix(0.9824 0.1866 -0.1866 0.9824 3.9857 -4.9547)" fill="#FCEE21" stroke="#FBB03B" stroke-width="0.977" stroke-linejoin="bevel" stroke-miterlimit="10" cx="28.316" cy="18.697" rx="3.093" ry="2.695"/>
			
				<ellipse transform="matrix(0.0281 0.9996 -0.9996 0.0281 43.9121 -5.865)" fill="#FCEE21" stroke="#FBB03B" stroke-width="0.977" stroke-linejoin="bevel" stroke-miterlimit="10" cx="24.972" cy="19.649" rx="3.093" ry="2.694"/>
			
				<ellipse transform="matrix(0.8222 -0.5692 0.5692 0.8222 -4.1459 23.2329)" fill="#FCEE21" stroke="#FBB03B" stroke-width="0.977" stroke-linejoin="bevel" stroke-miterlimit="10" cx="35.114" cy="18.252" rx="3.094" ry="2.693"/>
			
				<ellipse transform="matrix(0.8689 -0.495 0.495 0.8689 -9.6945 15.3126)" fill="#FCEE21" stroke="#FBB03B" stroke-width="0.977" stroke-linejoin="bevel" stroke-miterlimit="10" cx="24.061" cy="25.958" rx="3.094" ry="2.694"/>
			
				<ellipse transform="matrix(0.3665 0.9304 -0.9304 0.3665 38.023 -5.1529)" fill="#FCEE21" stroke="#FBB03B" stroke-width="0.977" stroke-linejoin="bevel" stroke-miterlimit="10" cx="22.795" cy="25.345" rx="3.094" ry="2.694"/>
			
				<ellipse transform="matrix(0.3585 0.9335 -0.9335 0.3585 44.7901 -3.5184)" fill="#FCEE21" stroke="#FBB03B" stroke-width="0.977" stroke-linejoin="bevel" stroke-miterlimit="10" cx="24.955" cy="30.83" rx="3.093" ry="2.693"/>
			
				<ellipse transform="matrix(0.9974 -0.0717 0.0717 0.9974 -1.1959 1.8624)" fill="#FCEE21" stroke="#FBB03B" stroke-width="0.977" stroke-linejoin="bevel" stroke-miterlimit="10" cx="25.361" cy="17.601" rx="3.094" ry="2.694"/>
			
				<ellipse transform="matrix(0.9974 -0.0717 0.0717 0.9974 -0.9289 1.8237)" fill="#FCEE21" stroke="#FBB03B" stroke-width="0.977" stroke-linejoin="bevel" stroke-miterlimit="10" cx="24.956" cy="13.859" rx="3.094" ry="2.694"/>
			
				<ellipse transform="matrix(0.9974 -0.0718 0.0718 0.9974 -1.3585 0.6709)" fill="#FCEE21" stroke="#FBB03B" stroke-width="0.977" stroke-linejoin="bevel" stroke-miterlimit="10" cx="8.652" cy="19.23" rx="3.094" ry="2.694"/>
			
				<ellipse transform="matrix(0.0603 0.9982 -0.9982 0.0603 101.982 -62.5566)" fill="#FCEE21" stroke="#FBB03B" stroke-width="0.977" stroke-linejoin="bevel" stroke-miterlimit="10" cx="84.215" cy="22.885" rx="3.094" ry="2.694"/>
			
				<ellipse transform="matrix(0.7429 0.6694 -0.6694 0.7429 33.2445 -37.4985)" fill="#FCEE21" stroke="#FBB03B" stroke-width="0.977" stroke-linejoin="bevel" stroke-miterlimit="10" cx="65.441" cy="24.531" rx="3.094" ry="2.695"/>
			
				<ellipse transform="matrix(-0.6694 0.7429 -0.7429 -0.6694 140.02 -6.4745)" fill="#FCEE21" stroke="#FBB03B" stroke-width="0.977" stroke-linejoin="bevel" stroke-miterlimit="10" cx="71.451" cy="27.92" rx="3.093" ry="2.694"/>
			
				<ellipse transform="matrix(0.0518 0.9987 -0.9987 0.0518 96.8548 -52.5305)" fill="#FCEE21" stroke="#FBB03B" stroke-width="0.977" stroke-linejoin="bevel" stroke-miterlimit="10" cx="76.089" cy="24.737" rx="3.094" ry="2.694"/>
			
				<ellipse transform="matrix(-0.9959 -0.0904 0.0904 -0.9959 151.9344 54.6478)" fill="#FCEE21" stroke="#FBB03B" stroke-width="0.977" stroke-linejoin="bevel" stroke-miterlimit="10" cx="77.205" cy="23.882" rx="3.094" ry="2.695"/>
			
				<ellipse transform="matrix(-0.9959 -0.0906 0.0906 -0.9959 160.3783 58.6428)" fill="#FCEE21" stroke="#FBB03B" stroke-width="0.977" stroke-linejoin="bevel" stroke-miterlimit="10" cx="81.52" cy="25.682" rx="3.094" ry="2.695"/>
			
				<ellipse transform="matrix(-0.9951 -0.0988 0.0988 -0.9951 140.0107 53.6299)" fill="#FCEE21" stroke="#FBB03B" stroke-width="0.977" stroke-linejoin="bevel" stroke-miterlimit="10" cx="71.333" cy="23.348" rx="3.093" ry="2.694"/>
			
				<ellipse transform="matrix(-0.9951 -0.0987 0.0987 -0.9951 165.4842 59.5456)" fill="#FCEE21" stroke="#FBB03B" stroke-width="0.977" stroke-linejoin="bevel" stroke-miterlimit="10" cx="84.214" cy="25.681" rx="3.093" ry="2.693"/>
			
				<ellipse transform="matrix(-0.6574 0.7535 -0.7535 -0.6574 133.546 -1.4561)" fill="#FCEE21" stroke="#FBB03B" stroke-width="0.977" stroke-linejoin="bevel" stroke-miterlimit="10" cx="67.104" cy="29.629" rx="3.094" ry="2.694"/>
			
				<ellipse transform="matrix(-0.6574 0.7535 -0.7535 -0.6574 127.1108 -4.8664)" fill="#FCEE21" stroke="#FBB03B" stroke-width="0.977" stroke-linejoin="bevel" stroke-miterlimit="10" cx="64.662" cy="26.461" rx="3.094" ry="2.694"/>
			
				<ellipse transform="matrix(0.9991 -0.0436 0.0436 0.9991 -0.8016 3.3436)" fill="#FCEE21" stroke="#FBB03B" stroke-width="0.977" stroke-linejoin="bevel" stroke-miterlimit="10" cx="76.321" cy="20.065" rx="3.094" ry="2.695"/>
			
				<ellipse transform="matrix(0.9991 -0.0433 0.0433 0.9991 -0.58 3.2679)" fill="#FCEE21" stroke="#FBB03B" stroke-width="0.977" stroke-linejoin="bevel" stroke-miterlimit="10" cx="75.229" cy="15.037" rx="3.093" ry="2.695"/>
			
				<ellipse transform="matrix(0.9991 -0.0432 0.0432 0.9991 -0.6253 3.4876)" fill="#FCEE21" stroke="#FBB03B" stroke-width="0.977" stroke-linejoin="bevel" stroke-miterlimit="10" cx="80.295" cy="16.197" rx="3.094" ry="2.695"/>
			
				<ellipse transform="matrix(0.67 -0.7423 0.7423 0.67 10.7775 59.0131)" fill="#FCEE21" stroke="#FBB03B" stroke-width="0.977" stroke-linejoin="bevel" stroke-miterlimit="10" cx="71.771" cy="17.383" rx="3.093" ry="2.693"/>
			
				<ellipse transform="matrix(-0.8963 -0.4434 0.4434 -0.8963 113.1027 78.5723)" fill="#FCEE21" stroke="#FBB03B" stroke-width="0.977" stroke-linejoin="bevel" stroke-miterlimit="10" cx="65.738" cy="26.062" rx="3.094" ry="2.695"/>
			
				<ellipse transform="matrix(-0.9958 -0.0912 0.0912 -0.9958 136.4944 53.3048)" fill="#FCEE21" stroke="#FBB03B" stroke-width="0.977" stroke-linejoin="bevel" stroke-miterlimit="10" cx="69.465" cy="23.533" rx="3.094" ry="2.694"/>
			
				<ellipse transform="matrix(-0.9958 -0.091 0.091 -0.9958 151.4828 64.1712)" fill="#FCEE21" stroke="#FBB03B" stroke-width="0.977" stroke-linejoin="bevel" stroke-miterlimit="10" cx="77.205" cy="28.63" rx="3.094" ry="2.693"/>
			
				<ellipse transform="matrix(-0.2209 0.9753 -0.9753 -0.2209 114.8483 -23.3777)" fill="#FCEE21" stroke="#FBB03B" stroke-width="0.977" stroke-linejoin="bevel" stroke-miterlimit="10" cx="66.761" cy="34.182" rx="3.094" ry="2.694"/>
			
				<ellipse transform="matrix(-0.2206 0.9754 -0.9754 -0.2206 119.4707 -31.9849)" fill="#FCEE21" stroke="#FBB03B" stroke-width="0.977" stroke-linejoin="bevel" stroke-miterlimit="10" cx="72.514" cy="31.739" rx="3.094" ry="2.695"/>
			
				<ellipse transform="matrix(-0.9309 -0.3652 0.3652 -0.9309 109.2753 83.7788)" fill="#FCEE21" stroke="#FBB03B" stroke-width="0.977" stroke-linejoin="bevel" stroke-miterlimit="10" cx="62.561" cy="31.555" rx="3.094" ry="2.693"/>
			
				<ellipse transform="matrix(-0.931 -0.365 0.365 -0.931 160.4866 86.8458)" fill="#FCEE21" stroke="#FBB03B" stroke-width="0.977" stroke-linejoin="bevel" stroke-miterlimit="10" cx="88.452" cy="28.253" rx="3.094" ry="2.695"/>
			
				<ellipse transform="matrix(-0.9309 -0.3652 0.3652 -0.9309 150.1018 87.6495)" fill="#FCEE21" stroke="#FBB03B" stroke-width="0.977" stroke-linejoin="bevel" stroke-miterlimit="10" cx="83.34" cy="29.629" rx="3.094" ry="2.693"/>
			
				<ellipse transform="matrix(0.2127 -0.9771 0.9771 0.2127 50.0337 93.4515)" fill="#FCEE21" stroke="#FBB03B" stroke-width="0.977" stroke-linejoin="bevel" stroke-miterlimit="10" cx="83.009" cy="15.677" rx="3.094" ry="2.694"/>
			
				<ellipse transform="matrix(-0.9348 0.3553 -0.3553 -0.9348 183.0911 9.2328)" fill="#FCEE21" stroke="#FBB03B" stroke-width="0.977" stroke-linejoin="bevel" stroke-miterlimit="10" cx="90.698" cy="21.428" rx="3.093" ry="2.693"/>
			
				<ellipse transform="matrix(0.0603 0.9982 -0.9982 0.0603 101.4132 -66.7063)" fill="#FCEE21" stroke="#FBB03B" stroke-width="0.977" stroke-linejoin="bevel" stroke-miterlimit="10" cx="86.135" cy="20.509" rx="3.094" ry="2.693"/>
			
				<ellipse transform="matrix(0.0604 0.9982 -0.9982 0.0604 103.5356 -74.7926)" fill="#FCEE21" stroke="#FBB03B" stroke-width="0.977" stroke-linejoin="bevel" stroke-miterlimit="10" cx="91.497" cy="17.601" rx="3.094" ry="2.694"/>
			
				<ellipse transform="matrix(0.0603 0.9982 -0.9982 0.0603 113.4105 -71.3836)" fill="#FCEE21" stroke="#FBB03B" stroke-width="0.977" stroke-linejoin="bevel" stroke-miterlimit="10" cx="94.618" cy="24.542" rx="3.094" ry="2.695"/>
			
				<ellipse transform="matrix(0.0604 0.9982 -0.9982 0.0604 117.656 -80.7939)" fill="#FCEE21" stroke="#FBB03B" stroke-width="0.977" stroke-linejoin="bevel" stroke-miterlimit="10" cx="101.745" cy="22.101" rx="3.094" ry="2.694"/>
			
				<ellipse transform="matrix(0.0518 0.9987 -0.9987 0.0518 108.3727 -61.3484)" fill="#FCEE21" stroke="#FBB03B" stroke-width="0.977" stroke-linejoin="bevel" stroke-miterlimit="10" cx="86.492" cy="26.394" rx="3.094" ry="2.694"/>
			
				<ellipse transform="matrix(-0.9959 -0.0904 0.0904 -0.9959 172.5453 58.8953)" fill="#FCEE21" stroke="#FBB03B" stroke-width="0.977" stroke-linejoin="bevel" stroke-miterlimit="10" cx="87.607" cy="25.539" rx="3.094" ry="2.695"/>
			
				<ellipse transform="matrix(-0.9959 -0.0906 0.0906 -0.9959 189.9575 50.5284)" fill="#FCEE21" stroke="#FBB03B" stroke-width="0.977" stroke-linejoin="bevel" stroke-miterlimit="10" cx="96.125" cy="20.953" rx="3.094" ry="2.694"/>
			
				<ellipse transform="matrix(-0.9959 -0.0904 0.0904 -0.9959 175.6481 43.1336)" fill="#FCEE21" stroke="#FBB03B" stroke-width="0.977" stroke-linejoin="bevel" stroke-miterlimit="10" cx="88.801" cy="17.587" rx="3.094" ry="2.695"/>
			
				<ellipse transform="matrix(-0.9959 -0.0906 0.0906 -0.9959 207.6857 58.7549)" fill="#FCEE21" stroke="#FBB03B" stroke-width="0.977" stroke-linejoin="bevel" stroke-miterlimit="10" cx="105.176" cy="24.664" rx="3.094" ry="2.694"/>
			
				<ellipse transform="matrix(0.9991 -0.0434 0.0434 0.9991 -1.2544 3.4329)" fill="#FCEE21" stroke="#FBB03B" stroke-width="0.977" stroke-linejoin="bevel" stroke-miterlimit="10" cx="78.428" cy="30.605" rx="3.094" ry="2.695"/>
			
				<ellipse transform="matrix(0.2126 -0.9771 0.9771 0.2126 56.6181 104.9249)" fill="#FCEE21" stroke="#FBB03B" stroke-width="0.977" stroke-linejoin="bevel" stroke-miterlimit="10" cx="93.411" cy="17.333" rx="3.094" ry="2.695"/>
			
				<ellipse transform="matrix(-0.9958 -0.0912 0.0912 -0.9958 213.7316 61.3623)" fill="#FCEE21" stroke="#FBB03B" stroke-width="0.977" stroke-linejoin="bevel" stroke-miterlimit="10" cx="108.268" cy="25.797" rx="3.094" ry="2.694"/>
			
				<ellipse transform="matrix(-0.931 -0.365 0.365 -0.931 150.3466 93.4856)" fill="#FCEE21" stroke="#FBB03B" stroke-width="0.977" stroke-linejoin="bevel" stroke-miterlimit="10" cx="84.01" cy="32.532" rx="3.094" ry="2.693"/>
			
				<ellipse transform="matrix(-0.9309 -0.3652 0.3652 -0.9309 191.1614 97.371)" fill="#FCEE21" stroke="#FBB03B" stroke-width="0.977" stroke-linejoin="bevel" stroke-miterlimit="10" cx="104.79" cy="30.606" rx="3.094" ry="2.694"/>
		</g>
	</g>
	<polyline fill="none" stroke="#000000" stroke-width="3" stroke-miterlimit="10" points="84.572,42.159 87.822,52.159 
		99.82,49.399 96.822,41.159 	"/>
	<polygon fill="#EAD226" stroke="#000000" stroke-width="2" stroke-miterlimit="10" points="41.256,49.409 31.572,47.651 
		28.572,31.659 41.256,32.728 	"/>
	<line fill="none" stroke="#000000" stroke-width="3" stroke-miterlimit="10" x1="35.843" y1="39.118" x2="35.843" y2="46.181"/>
	<ellipse cx="35.926" cy="36.931" rx="2.521" ry="2.729"/>
</g>
</svg>
