<?xml version="1.0" encoding="utf-8"?>
<!-- Generator: Adobe Illustrator 16.0.0, SVG Export Plug-In . SVG Version: 6.00 Build 0)  -->
<!DOCTYPE svg PUBLIC "-//W3C//DTD SVG 1.1//EN" "http://www.w3.org/Graphics/SVG/1.1/DTD/svg11.dtd">
<svg version="1.1" id="Layer_1" xmlns="http://www.w3.org/2000/svg" xmlns:xlink="http://www.w3.org/1999/xlink" x="0px" y="0px"
	 width="50.402px" height="180.697px" viewBox="0 0 50.402 180.697" enable-background="new 0 0 50.402 180.697"
	 xml:space="preserve">
<g>
	<polyline fill="#FFFFFF" stroke="#FFFFFF" stroke-width="1.9058" stroke-miterlimit="10" points="14.49,57.843 18.513,49.12 
		12.796,32.354 15.655,27.2 18.513,23.918 17.031,18.765 15.655,5.749 20.843,10.959 26.56,10.133 29.737,10.959 34.185,4.056 
		35.667,17.433 31.644,23.918 37.36,28.93 37.36,32.354 33.231,49.12 35.667,57.08 	"/>
	<polygon fill="#FFFFFF" stroke="#FFFFFF" stroke-width="2.2444" stroke-linecap="round" stroke-miterlimit="10" points="
		35.802,167.137 15.104,167.137 13.732,84.052 35.802,84.052 	"/>
	<polygon fill="#FFFFFF" stroke="#FFFFFF" stroke-width="2.2444" stroke-linecap="round" stroke-miterlimit="10" points="
		16.47,164.604 11.981,164.604 9.737,90.538 14.226,90.538 	"/>
	<polygon fill="#FFFFFF" stroke="#FFFFFF" stroke-width="2.2444" stroke-linecap="round" stroke-miterlimit="10" points="
		39.423,162.359 34.935,162.359 36.183,90.538 40.671,90.538 	"/>
	<polygon fill="#FFFFFF" stroke="#FFFFFF" stroke-width="2.5202" stroke-linecap="round" stroke-miterlimit="10" points="
		44.388,92.661 6.584,94.737 5.184,52.924 47.468,51.776 	"/>
	<circle fill="#FFFFFF" stroke="#FFFFFF" stroke-width="1.705" stroke-miterlimit="10" cx="26.325" cy="73.303" r="16.34"/>
	<polyline fill="#FFFFFF" stroke="#FFFFFF" stroke-width="1.9058" stroke-miterlimit="10" points="23.86,19.938 25.078,23.918 
		27.407,19.938 	"/>
	
		<line fill="#FFFFFF" stroke="#FFFFFF" stroke-width="1.9058" stroke-miterlimit="10" x1="19.572" y1="28.93" x2="19.572" y2="42.045"/>
	
		<line fill="#FFFFFF" stroke="#FFFFFF" stroke-width="1.9058" stroke-miterlimit="10" x1="30.796" y1="29.679" x2="31.854" y2="42.045"/>
	<circle fill="#FFFFFF" stroke="#FFFFFF" stroke-miterlimit="10" cx="23.024" cy="16.522" r="1.546"/>
	<circle fill="#FFFFFF" stroke="#FFFFFF" stroke-miterlimit="10" cx="27.683" cy="16.522" r="1.546"/>
	
		<rect x="7.498" y="160.114" fill="#FFFFFF" stroke="#FFFFFF" stroke-width="2.2444" stroke-linecap="round" stroke-miterlimit="10" width="35.912" height="7.125"/>
	
		<rect x="3.563" y="163.677" fill="#FFFFFF" stroke="#FFFFFF" stroke-width="2.2444" stroke-linecap="round" stroke-miterlimit="10" width="44.141" height="14.382"/>
</g>
</svg>
