<?xml version="1.0" encoding="utf-8"?>
<!-- Generator: Adobe Illustrator 16.0.0, SVG Export Plug-In . SVG Version: 6.00 Build 0)  -->
<!DOCTYPE svg PUBLIC "-//W3C//DTD SVG 1.1//EN" "http://www.w3.org/Graphics/SVG/1.1/DTD/svg11.dtd">
<svg version="1.1" id="Layer_1" xmlns="http://www.w3.org/2000/svg" xmlns:xlink="http://www.w3.org/1999/xlink" x="0px" y="0px"
	 width="68.901px" height="132.708px" viewBox="0 0 68.901 132.708" enable-background="new 0 0 68.901 132.708"
	 xml:space="preserve">
<g>
	<polygon fill="#754C24" points="4.027,3.575 65.206,6.062 62.149,123.856 10.151,128.533 	"/>
	<path fill="#42210B" d="M6.132,5.662L63.155,7.98l-2.958,114.043l-48.149,4.331L6.132,5.662 M1.922,1.487l6.333,129.225
		l55.847-5.023L67.256,4.144L1.922,1.487L1.922,1.487z"/>
</g>
<g>
	<g>
		<polygon fill="#E5C677" points="41.431,14.199 56.583,14.942 55.669,57.4 42.735,58.194 		"/>
		<path fill="#42210B" d="M42.955,15.752l12.12,0.595l-0.853,39.662l-10.056,0.618L42.955,15.752 M39.907,12.646l1.396,47.116
			l15.813-0.971l0.973-45.253L39.907,12.646L39.907,12.646z"/>
	</g>
	<g>
		<polygon fill="#E5C677" points="15.71,12.937 35.131,13.89 36.456,58.58 17.611,59.736 		"/>
		<path fill="#42210B" d="M17.251,14.491l16.444,0.807l1.241,41.896L19.026,58.17L17.251,14.491 M14.169,11.382l2.028,49.92
			l21.778-1.336l-1.407-47.485L14.169,11.382L14.169,11.382z"/>
	</g>
	<g>
		<polygon fill="#E5C677" points="17.927,67.517 36.687,66.364 38.057,112.596 19.838,114.574 		"/>
		<path fill="#42210B" d="M35.255,67.932l1.284,43.344l-15.29,1.66l-1.789-44.033L35.255,67.932 M38.118,64.797l-21.725,1.334
			l2.034,50.082l21.146-2.296L38.118,64.797L38.118,64.797z"/>
	</g>
	<g>
		<polygon fill="#E5C677" points="42.965,65.979 55.501,65.21 54.521,110.809 44.327,111.915 		"/>
		<path fill="#42210B" d="M53.991,66.782l-0.918,42.698l-7.317,0.794l-1.271-42.908L53.991,66.782 M57.013,63.638l-15.566,0.955
			l1.451,48.963l13.072-1.419L57.013,63.638L57.013,63.638z"/>
	</g>
</g>
</svg>
