<?xml version="1.0" encoding="utf-8"?>
<!-- Generator: Adobe Illustrator 16.0.0, SVG Export Plug-In . SVG Version: 6.00 Build 0)  -->
<!DOCTYPE svg PUBLIC "-//W3C//DTD SVG 1.1//EN" "http://www.w3.org/Graphics/SVG/1.1/DTD/svg11.dtd">
<svg version="1.1" id="Layer_1" xmlns="http://www.w3.org/2000/svg" xmlns:xlink="http://www.w3.org/1999/xlink" x="0px" y="0px"
	 width="135.389px" height="186.327px" viewBox="0 0 135.389 186.327" enable-background="new 0 0 135.389 186.327"
	 xml:space="preserve">
<path fill="#1D9981" stroke="#000000" stroke-width="3" stroke-miterlimit="10" d="M124.108,173.341l-52.901-59.127l10.795-7.615
	l0.514-6.338l27.258,10.816l22.398-23.291L117.39,59.121l-1.342,7.615l-4.48,5.821c0,0-3.988,7.887-1.344,10.75
	c2.645,2.865,5.375,5.824,5.375,5.824l-10.303,7.166l-21.053-8.062l2.687-17.916l14.335-30.906L69.461,2.681l-29.563,8.958
	l-5.375,17.918l5.375-4.928c0,0,3.136,5.375,9.407,4.928c6.271-0.448,8.062-5.375,8.062-5.375l5.823-7.615l18.446,23.597
	L67.221,65.392L45.72,41.203l-30.907-4.479L1.822,58.673l2.688,8.062l3.583-7.615c0,0,3.137,2.687,9.855,2.239
	s7.615-4.927,7.615-4.927v-8.958l18.812,8.062l6.719,22.844l-27.324-5.375L6.75,88.009l-0.896,17.695l8.511,4.926l-3.583-6.719
	c0,0,9.747,2.545,12.542,0.449c2.795-2.098,3.584-3.137,5.375-7.615c1.792-4.48-3.135-7.615-3.135-7.615l19.261-1.121l-3.135,17.693
	l17.021,14.781l55.543,63.16"/>
</svg>
