<?xml version="1.0" encoding="utf-8"?>
<!-- Generator: Adobe Illustrator 16.0.0, SVG Export Plug-In . SVG Version: 6.00 Build 0)  -->
<!DOCTYPE svg PUBLIC "-//W3C//DTD SVG 1.1//EN" "http://www.w3.org/Graphics/SVG/1.1/DTD/svg11.dtd">
<svg version="1.1" id="Layer_1" xmlns="http://www.w3.org/2000/svg" xmlns:xlink="http://www.w3.org/1999/xlink" x="0px" y="0px"
	 width="127.958px" height="74.731px" viewBox="0 0 127.958 74.731" enable-background="new 0 0 127.958 74.731"
	 xml:space="preserve">
<g>
	
		<linearGradient id="SVGID_1_" gradientUnits="userSpaceOnUse" x1="17.6748" y1="38.8491" x2="116.2856" y2="38.8491" gradientTransform="matrix(0.9727 0.2323 -0.2323 0.9727 12.2476 -14.7296)">
		<stop  offset="0" style="stop-color:#1A1A1A"/>
		<stop  offset="1" style="stop-color:#4D4D4D"/>
	</linearGradient>
	<path fill="url(#SVGID_1_)" d="M112.741,65.093c1.219-33.395-19.963-61.274-47.31-62.271c-27.346-1-50.503,25.261-51.723,58.655
		L112.741,65.093z"/>
	
		<linearGradient id="SVGID_2_" gradientUnits="userSpaceOnUse" x1="17.6738" y1="50.4849" x2="116.2856" y2="50.4849" gradientTransform="matrix(0.9727 0.2323 -0.2323 0.9727 12.2476 -14.7296)">
		<stop  offset="0" style="stop-color:#FFFFFF"/>
		<stop  offset="1" style="stop-color:#CCCCCC"/>
	</linearGradient>
	<path fill="url(#SVGID_2_)" d="M107.817,36.054c3.498,8.706,5.305,18.603,4.924,29.039l-99.032-3.616
		c0.355-9.779,2.595-18.947,6.269-26.999C71.107,26.095,107.817,36.054,107.817,36.054z"/>
	<g>
		<g>
			
				<linearGradient id="SVGID_3_" gradientUnits="userSpaceOnUse" x1="7.6836" y1="65.0034" x2="129.6646" y2="65.0034" gradientTransform="matrix(0.9727 0.2323 -0.2323 0.9727 12.2476 -14.7296)">
				<stop  offset="0" style="stop-color:#1A1A1A"/>
				<stop  offset="1" style="stop-color:#4D4D4D"/>
			</linearGradient>
			<path fill="url(#SVGID_3_)" d="M124.762,72.351C37.903,70.672,68.15,71.247,3.586,70.976l-1.29-10.953
				c30.731-1.848,89.561-4.868,123.099-1.845L124.762,72.351z"/>
		</g>
	</g>
</g>
</svg>
