<?xml version="1.0" encoding="UTF-8" standalone="no"?>
<!-- Generator: Adobe Illustrator 16.0.0, SVG Export Plug-In . SVG Version: 6.00 Build 0)  -->

<svg
   xmlns:dc="http://purl.org/dc/elements/1.1/"
   xmlns:cc="http://creativecommons.org/ns#"
   xmlns:rdf="http://www.w3.org/1999/02/22-rdf-syntax-ns#"
   xmlns:svg="http://www.w3.org/2000/svg"
   xmlns="http://www.w3.org/2000/svg"
   xmlns:sodipodi="http://sodipodi.sourceforge.net/DTD/sodipodi-0.dtd"
   xmlns:inkscape="http://www.inkscape.org/namespaces/inkscape"
   version="1.1"
   id="Layer_1"
   x="0px"
   y="0px"
   width="37"
   height="127"
   viewBox="0 0 36.999999 127"
   enable-background="new 0 0 36.998 125.201"
   xml:space="preserve"
   inkscape:version="0.48.2 r9819"
   sodipodi:docname="lamp.svg"><metadata
   id="metadata29"><rdf:RDF><cc:Work
       rdf:about=""><dc:format>image/svg+xml</dc:format><dc:type
         rdf:resource="http://purl.org/dc/dcmitype/StillImage" /></cc:Work></rdf:RDF></metadata><defs
   id="defs27" /><sodipodi:namedview
   pagecolor="#ffffff"
   bordercolor="#666666"
   borderopacity="1"
   objecttolerance="10"
   gridtolerance="10"
   guidetolerance="10"
   inkscape:pageopacity="0"
   inkscape:pageshadow="2"
   inkscape:window-width="935"
   inkscape:window-height="726"
   id="namedview25"
   showgrid="false"
   inkscape:zoom="1.884969"
   inkscape:cx="18.499001"
   inkscape:cy="62.600498"
   inkscape:window-x="2052"
   inkscape:window-y="386"
   inkscape:window-maximized="0"
   inkscape:current-layer="Layer_1" />
<g
   id="g3"
   transform="translate(0,1.7990037)">
	
		<rect
   x="6.5419998"
   y="71.152"
   stroke-miterlimit="10"
   width="24.375"
   height="33.668999"
   id="rect5"
   style="fill:none;stroke:#000000;stroke-width:3;stroke-miterlimit:10" />
	<path
   stroke-miterlimit="10"
   d="m 18.548,104.821 c 4.947,6.686 9.969,15.814 -1.167,17.25 -11.136,1.436 -7.722,-14.566 -1.722,-7.316"
   id="path7"
   inkscape:connector-curvature="0"
   style="fill:none;stroke:#000000;stroke-width:3;stroke-linecap:round;stroke-miterlimit:10" />
	<path
   d="M 34.792,71.152 H 3.167 c 0,0 1.875,-2.875 -2,-5.619 10.125,-1.868 17.563,-9.243 17.563,-9.243 0,0 9.062,7.625 17.188,7.875 -3.251,3.125 -1.126,6.987 -1.126,6.987 z"
   id="path9"
   inkscape:connector-curvature="0" />
	
		<ellipse
   stroke-miterlimit="10"
   cx="18.73"
   cy="46.147999"
   rx="4.0560002"
   ry="5.3889999"
   id="ellipse11"
   sodipodi:cx="18.73"
   sodipodi:cy="46.147999"
   sodipodi:rx="4.0560002"
   sodipodi:ry="5.3889999"
   style="fill:none;stroke:#000000;stroke-width:2.66680002;stroke-linecap:round;stroke-miterlimit:10"
   d="m 22.786,46.147999 c 0,2.976262 -1.815933,5.389 -4.056,5.389 -2.240068,0 -4.056001,-2.412738 -4.056001,-5.389 0,-2.976263 1.815933,-5.389 4.056001,-5.389 2.240067,0 4.056,2.412737 4.056,5.389 z" />
	<line
   stroke-miterlimit="10"
   x1="18.73"
   y1="48.870998"
   x2="18.73"
   y2="59.203999"
   id="line13"
   style="fill:none;stroke:#000000;stroke-width:2.66680002;stroke-miterlimit:10" />
	
		<ellipse
   stroke-miterlimit="10"
   cx="18.73"
   cy="29.898001"
   rx="4.0560002"
   ry="5.3889999"
   id="ellipse15"
   sodipodi:cx="18.73"
   sodipodi:cy="29.898001"
   sodipodi:rx="4.0560002"
   sodipodi:ry="5.3889999"
   style="fill:none;stroke:#000000;stroke-width:2.66680002;stroke-linecap:round;stroke-miterlimit:10"
   d="m 22.786,29.898001 c 0,2.976262 -1.815933,5.389 -4.056,5.389 -2.240068,0 -4.056001,-2.412738 -4.056001,-5.389 0,-2.976263 1.815933,-5.389 4.056001,-5.389 2.240067,0 4.056,2.412737 4.056,5.389 z" />
	<line
   stroke-miterlimit="10"
   x1="18.73"
   y1="32.620998"
   x2="18.73"
   y2="42.953999"
   id="line17"
   style="fill:none;stroke:#000000;stroke-width:2.66680002;stroke-miterlimit:10" />
	
		<ellipse
   stroke-miterlimit="10"
   cx="18.73"
   cy="13.898"
   rx="4.0560002"
   ry="5.3889999"
   id="ellipse19"
   sodipodi:cx="18.73"
   sodipodi:cy="13.898"
   sodipodi:rx="4.0560002"
   sodipodi:ry="5.3889999"
   style="fill:none;stroke:#000000;stroke-width:2.66680002;stroke-linecap:round;stroke-miterlimit:10"
   d="m 22.786,13.898 c 0,2.976262 -1.815933,5.389 -4.056,5.389 -2.240068,0 -4.056001,-2.412738 -4.056001,-5.389 0,-2.976263 1.815933,-5.3890002 4.056001,-5.3890002 2.240067,0 4.056,2.4127372 4.056,5.3890002 z" />
	<line
   stroke-miterlimit="10"
   x1="18.73"
   y1="16.621"
   x2="18.73"
   y2="26.954"
   id="line21"
   style="fill:none;stroke:#000000;stroke-width:2.66680002;stroke-miterlimit:10" />
	
		<line
   stroke-miterlimit="10"
   x1="18.542"
   y1="1.2460001"
   x2="18.542"
   y2="11.579"
   id="line23"
   style="fill:none;stroke:#000000;stroke-width:2.66680002;stroke-miterlimit:10" />
</g>
</svg>