<?xml version="1.0" encoding="UTF-8" standalone="no"?>
<!-- Generator: Adobe Illustrator 16.0.0, SVG Export Plug-In . SVG Version: 6.00 Build 0)  -->

<svg
   xmlns:dc="http://purl.org/dc/elements/1.1/"
   xmlns:cc="http://creativecommons.org/ns#"
   xmlns:rdf="http://www.w3.org/1999/02/22-rdf-syntax-ns#"
   xmlns:svg="http://www.w3.org/2000/svg"
   xmlns="http://www.w3.org/2000/svg"
   xmlns:sodipodi="http://sodipodi.sourceforge.net/DTD/sodipodi-0.dtd"
   xmlns:inkscape="http://www.inkscape.org/namespaces/inkscape"
   version="1.1"
   id="Layer_1"
   x="0px"
   y="0px"
   width="115"
   height="71.040001"
   viewBox="0 0 115 71.040002"
   enable-background="new 0 0 110.992 71.044"
   xml:space="preserve"
   inkscape:version="0.48.2 r9819"
   sodipodi:docname="spider.svg"><metadata
   id="metadata23"><rdf:RDF><cc:Work
       rdf:about=""><dc:format>image/svg+xml</dc:format><dc:type
         rdf:resource="http://purl.org/dc/dcmitype/StillImage" /></cc:Work></rdf:RDF></metadata><defs
   id="defs21" /><sodipodi:namedview
   pagecolor="#ffffff"
   bordercolor="#666666"
   borderopacity="1"
   objecttolerance="10"
   gridtolerance="10"
   guidetolerance="10"
   inkscape:pageopacity="0"
   inkscape:pageshadow="2"
   inkscape:window-width="885"
   inkscape:window-height="698"
   id="namedview19"
   showgrid="false"
   inkscape:zoom="2.9011101"
   inkscape:cx="55.495998"
   inkscape:cy="35.521999"
   inkscape:window-x="2205"
   inkscape:window-y="287"
   inkscape:window-maximized="0"
   inkscape:current-layer="g3" />
<g
   id="g3"
   transform="translate(1.034087,0.34069693)">
	<path
   d="m 89.436,35.607 c 0,18.632 -15.102,33.741 -33.734,33.741 -18.636,0 -33.74,-15.108 -33.74,-33.741 0,-18.636 15.104,-33.741 33.74,-33.741 18.632,10e-4 33.734,15.105 33.734,33.741 z"
   id="path5"
   inkscape:connector-curvature="0" />
	<polyline
   stroke-miterlimit="10"
   points="2.934,40.081 55.701,35.607    109.227,38.291  "
   id="polyline7"
   style="fill:none;stroke:#000000;stroke-width:7.14589977;stroke-miterlimit:10" />
	<polyline
   stroke-miterlimit="10"
   points="2.934,22.655 55.701,35.607    107.747,22.655  "
   id="polyline9"
   style="fill:none;stroke:#000000;stroke-width:7.14589977;stroke-miterlimit:10" />
	<polyline
   stroke-miterlimit="10"
   points="6.21,9.707 55.701,35.607    102.681,9.707  "
   id="polyline11"
   style="fill:none;stroke:#000000;stroke-width:7.14589977;stroke-miterlimit:10" />
	<polyline
   stroke-miterlimit="10"
   points="6.21,56.745 55.701,35.607    106.547,57.945  "
   id="polyline13"
   style="fill:none;stroke:#000000;stroke-width:7.14589977;stroke-miterlimit:10" />
	<circle
   cx="48.412998"
   cy="51.686001"
   r="4.9130001"
   id="circle15"
   d="m 53.325998,51.686001 c 0,2.713375 -2.199625,4.913 -4.913,4.913 -2.713375,0 -4.913,-2.199625 -4.913,-4.913 0,-2.713375 2.199625,-4.913 4.913,-4.913 2.713375,0 4.913,2.199625 4.913,4.913 z"
   sodipodi:cx="48.412998"
   sodipodi:cy="51.686001"
   sodipodi:rx="4.9130001"
   sodipodi:ry="4.9130001"
   style="fill:#ffffff" />
	<circle
   cx="63.748001"
   cy="51.686001"
   r="4.9130001"
   id="circle17"
   d="m 68.661001,51.686001 c 0,2.713375 -2.199625,4.913 -4.913,4.913 -2.713375,0 -4.913,-2.199625 -4.913,-4.913 0,-2.713375 2.199625,-4.913 4.913,-4.913 2.713375,0 4.913,2.199625 4.913,4.913 z"
   sodipodi:cx="63.748001"
   sodipodi:cy="51.686001"
   sodipodi:rx="4.9130001"
   sodipodi:ry="4.9130001"
   style="fill:#ffffff" />
</g>
</svg>