<svg width="24pt" height="24pt" viewBox="0 0 400 400" xmlns="http://www.w3.org/2000/svg"><g fill="none"><path d="M0 0h400v400H0V0m336.53 77.89c1.21 3.77 2.53 7.51 3.9 11.24 2.44-.73 4.83-1.61 7.16-2.64-1.39-3.46-2.71-6.93-4-10.42-2.37.57-4.72 1.2-7.06 1.82m27.01 9.03c1.17 2.15 4.11 2.65 6.12 3.91 1.79-3.48 3.56-6.98 5.22-10.53-2.31-1.05-4.62-2.09-6.93-3.11-1.63 3.16-3.5 6.27-4.41 9.73m-277 7.37c-38.6 12.72-69 46.84-77.88 86.41-5.86 26.06-3.22 54.13 8.38 78.26 12.8 27.38 36.34 49.56 64.52 60.52 20.61 8.42 43.62 10.34 65.49 6.58 23.7-4.34 46.09-15.79 63.17-32.83 20.43-20.08 33.17-47.69 35.3-76.25.21-5.34.19-10.69.08-16.03-.11-8.01-1.94-15.84-3.54-23.65 9.42-7.54 19.38-14.4 28.66-22.12-5.39-7.34-11.11-14.43-16.45-21.81 5.34-6.01 10.98-13.77 19.76-14.19 2.86-.04 6.75-.56 8.4 2.4 2.83 5.2 3.12 11.29 5.2 16.78 3.1 9.22 10.49 17.18 19.96 19.9 9.68 2.69 20.36.55 28.67-4.96 11.97-7.68 19.61-20.77 22.35-34.55-4.21-1.45-8.58-2.37-13.02-2.61-1.69 7.72-4.78 15.35-10.31 21.12-5.26 5.44-12.56 9.54-20.32 9.06-6.15-.42-11.43-4.83-14.03-10.26-3.37-7.13-3.4-15.5-7.67-22.26-2.81-4.53-7.97-7.26-13.25-7.49-5.33-.26-10.9-.39-15.93 1.68-7.32 2.91-12.66 8.92-18.08 14.38-6.15-7.51-11.59-15.56-17.84-22.99-6.64 4.94-13.23 9.95-19.75 15.05-1.29.84-2.52 2.09-4.14 2.18-4.33-2.93-8.13-6.6-12.62-9.31-30.49-20.28-70.62-25.5-105.11-13.01m229.23 6.62c3.41 2.04 6.95 3.86 10.71 5.18.97-2.12 1.97-4.23 2.97-6.35-3.48-1.93-7.06-3.65-10.67-5.31-1.02 2.16-2.02 4.32-3.01 6.48m64 1.24c.78 2.33 1.57 4.66 2.35 7 3.71-1.13 7.35-2.51 10.9-4.09-.74-2.32-1.47-4.65-2.21-6.97-3.72 1.24-7.4 2.6-11.04 4.06m-65.44 23.5c.68 2.18 1.36 4.35 2.02 6.54 3.91-.78 7.67-2.18 11.2-4.03-.82-2.24-1.63-4.48-2.44-6.72-3.69 1.16-7.31 2.51-10.78 4.21m64.25 5.35c3.46 1.94 7.02 3.7 10.78 4.99.92-2.31 1.86-4.6 2.77-6.9-3.36-1.71-6.78-3.3-10.24-4.76-1.13 2.21-2.23 4.44-3.31 6.67m-18.74 12.92c1.16 3.72 2.42 7.4 3.74 11.07 2.45-.83 4.87-1.75 7.26-2.74-1.39-3.69-2.72-7.41-4.06-11.11-2.32.92-4.63 1.85-6.94 2.78z"/><path d="M113.4 137.67c16.17-2.74 33.42-.1 47.56 8.38 15.21 8.65 26.99 23.1 32.31 39.78 8.96 25.65.67 55.92-19.35 74.09-12.64 11.72-29.59 18.8-46.88 18.92-17.8.53-35.51-6.3-48.69-18.18-10.58-9.6-18.49-22.3-21.69-36.27-4.6-18.65-1.15-39.2 9.45-55.24 10.52-16.42 28.11-28.07 47.29-31.48m44.06 42.93c-5.94 1.99-9.44 9.14-7.08 15.02 2.24 7.11 11.93 10.09 17.83 5.56 6.06-3.97 6.44-13.75.94-18.35-3.03-3.07-7.76-3.06-11.69-2.23z"/></g><g fill="#231f20"><path d="M336.53 77.89c2.34-.62 4.69-1.25 7.06-1.82 1.29 3.49 2.61 6.96 4 10.42-2.33 1.03-4.72 1.91-7.16 2.64-1.37-3.73-2.69-7.47-3.9-11.24zM363.54 86.92c.91-3.46 2.78-6.57 4.41-9.73 2.31 1.02 4.62 2.06 6.93 3.11-1.66 3.55-3.43 7.05-5.22 10.53-2.01-1.26-4.95-1.76-6.12-3.91zM86.54 94.29c34.49-12.49 74.62-7.27 105.11 13.01 4.49 2.71 8.29 6.38 12.62 9.31 1.62-.09 2.85-1.34 4.14-2.18 6.52-5.1 13.11-10.11 19.75-15.05 6.25 7.43 11.69 15.48 17.84 22.99 5.42-5.46 10.76-11.47 18.08-14.38 5.03-2.07 10.6-1.94 15.93-1.68 5.28.23 10.44 2.96 13.25 7.49 4.27 6.76 4.3 15.13 7.67 22.26 2.6 5.43 7.88 9.84 14.03 10.26 7.76.48 15.06-3.62 20.32-9.06 5.53-5.77 8.62-13.4 10.31-21.12 4.44.24 8.81 1.16 13.02 2.61-2.74 13.78-10.38 26.87-22.35 34.55-8.31 5.51-18.99 7.65-28.67 4.96-9.47-2.72-16.86-10.68-19.96-19.9-2.08-5.49-2.37-11.58-5.2-16.78-1.65-2.96-5.54-2.44-8.4-2.4-8.78.42-14.42 8.18-19.76 14.19 5.34 7.38 11.06 14.47 16.45 21.81-9.28 7.72-19.24 14.58-28.66 22.12 1.6 7.81 3.43 15.64 3.54 23.65.11 5.34.13 10.69-.08 16.03-2.13 28.56-14.87 56.17-35.3 76.25-17.08 17.04-39.47 28.49-63.17 32.83-21.87 3.76-44.88 1.84-65.49-6.58-28.18-10.96-51.72-33.14-64.52-60.52-11.6-24.13-14.24-52.2-8.38-78.26 8.88-39.57 39.28-73.69 77.88-86.41m26.86 43.38c-19.18 3.41-36.77 15.06-47.29 31.48-10.6 16.04-14.05 36.59-9.45 55.24 3.2 13.97 11.11 26.67 21.69 36.27 13.18 11.88 30.89 18.71 48.69 18.18 17.29-.12 34.24-7.2 46.88-18.92 20.02-18.17 28.31-48.44 19.35-74.09-5.32-16.68-17.1-31.13-32.31-39.78-14.14-8.48-31.39-11.12-47.56-8.38zM315.77 100.91c.99-2.16 1.99-4.32 3.01-6.48 3.61 1.66 7.19 3.38 10.67 5.31-1 2.12-2 4.23-2.97 6.35-3.76-1.32-7.3-3.14-10.71-5.18zM379.77 102.15c3.64-1.46 7.32-2.82 11.04-4.06.74 2.32 1.47 4.65 2.21 6.97-3.55 1.58-7.19 2.96-10.9 4.09-.78-2.34-1.57-4.67-2.35-7z"/><path d="M314.33 125.65c3.47-1.7 7.09-3.05 10.78-4.21.81 2.24 1.62 4.48 2.44 6.72-3.53 1.85-7.29 3.25-11.2 4.03-.66-2.19-1.34-4.36-2.02-6.54zM378.58 131c1.08-2.23 2.18-4.46 3.31-6.67 3.46 1.46 6.88 3.05 10.24 4.76-.91 2.3-1.85 4.59-2.77 6.9-3.76-1.29-7.32-3.05-10.78-4.99zM359.84 143.92c2.31-.93 4.62-1.86 6.94-2.78 1.34 3.7 2.67 7.42 4.06 11.11-2.39.99-4.81 1.91-7.26 2.74-1.32-3.67-2.58-7.35-3.74-11.07zM157.46 180.6c3.93-.83 8.66-.84 11.69 2.23 5.5 4.6 5.12 14.38-.94 18.35-5.9 4.53-15.59 1.55-17.83-5.56-2.36-5.88 1.14-13.03 7.08-15.02z"/></g></svg>