<?xml version="1.0" encoding="utf-8"?>
<!-- Generator: Adobe Illustrator 16.0.0, SVG Export Plug-In . SVG Version: 6.00 Build 0)  -->
<!DOCTYPE svg PUBLIC "-//W3C//DTD SVG 1.1//EN" "http://www.w3.org/Graphics/SVG/1.1/DTD/svg11.dtd">
<svg version="1.1" id="Layer_1" xmlns="http://www.w3.org/2000/svg" xmlns:xlink="http://www.w3.org/1999/xlink" x="0px" y="0px"
	 width="115.013px" height="73.978px" viewBox="0 0 115.013 73.978" enable-background="new 0 0 115.013 73.978"
	 xml:space="preserve">
<g>
	<polygon fill="#FFFFFF" stroke="#FFFFFF" stroke-width="2" stroke-linejoin="bevel" stroke-miterlimit="10" points="75.068,71.127 
		12.068,50.747 3.977,24.645 69.525,37.67 	"/>
	<polygon fill="#FFFFFF" stroke="#FFFFFF" stroke-width="2" stroke-linejoin="bevel" stroke-miterlimit="10" points="
		104.901,62.793 75.068,71.127 69.525,37.67 112.858,31.112 	"/>
	<polygon fill="#FFFFFF" stroke="#FFFFFF" stroke-width="3" stroke-linejoin="bevel" stroke-miterlimit="10" points="69.525,37.67 
		3.977,24.645 48.525,15.562 112.858,31.112 	"/>
	<polygon fill="#FFFFFF" stroke="#FFFFFF" stroke-width="3" stroke-linejoin="bevel" stroke-miterlimit="10" points="69.592,37.246 
		4.043,24.221 48.592,15.139 112.925,30.689 	"/>
	<polygon fill="#FFFFFF" stroke="#FFFFFF" stroke-width="2" stroke-linejoin="bevel" stroke-miterlimit="10" points="79.608,3.377 
		13.866,5.83 3.977,24.645 69.525,37.67 	"/>
	<polygon fill="#FFFFFF" stroke="#FFFFFF" stroke-width="2" stroke-linejoin="bevel" stroke-miterlimit="10" points="104.358,5.877 
		79.608,3.377 69.525,37.67 112.858,31.112 	"/>
	<polyline fill="#FFFFFF" stroke="#FFFFFF" stroke-width="3" stroke-miterlimit="10" points="85.108,45.627 88.358,55.627 
		100.356,52.867 97.358,44.627 	"/>
	<polygon fill="#FFFFFF" stroke="#FFFFFF" stroke-width="2" stroke-miterlimit="10" points="41.792,52.877 32.108,51.119 
		29.108,35.127 41.792,36.195 	"/>
	<line fill="#FFFFFF" stroke="#FFFFFF" stroke-width="3" stroke-miterlimit="10" x1="36.379" y1="42.586" x2="36.379" y2="49.648"/>
	<ellipse fill="#FFFFFF" stroke="#FFFFFF" stroke-miterlimit="10" cx="36.462" cy="40.398" rx="2.521" ry="2.729"/>
</g>
</svg>
