<?xml version="1.0" encoding="utf-8"?>
<!-- Generator: Adobe Illustrator 16.0.0, SVG Export Plug-In . SVG Version: 6.00 Build 0)  -->
<!DOCTYPE svg PUBLIC "-//W3C//DTD SVG 1.1//EN" "http://www.w3.org/Graphics/SVG/1.1/DTD/svg11.dtd">
<svg version="1.1" id="Layer_1" xmlns="http://www.w3.org/2000/svg" xmlns:xlink="http://www.w3.org/1999/xlink" x="0px" y="0px"
	 width="49.061px" height="180.429px" viewBox="0 0 49.061 180.429" enable-background="new 0 0 49.061 180.429"
	 xml:space="preserve">
<g>
	<polyline fill="#754C24" stroke="#000000" stroke-width="1.9058" stroke-miterlimit="10" points="13.213,57.744 17.237,49.021 
		11.52,32.254 14.378,27.101 17.237,23.819 15.754,18.666 14.378,5.65 19.566,10.86 25.284,10.034 28.46,10.86 32.908,3.957 
		34.39,17.333 30.367,23.819 36.083,28.831 36.083,32.254 31.955,49.021 34.39,56.98 	"/>
	<polygon fill="#332216" stroke="#000000" stroke-width="2.2444" stroke-linecap="round" stroke-miterlimit="10" points="
		34.526,167.038 13.827,167.038 12.456,83.953 34.526,83.953 	"/>
	<polygon fill="#754C24" stroke="#000000" stroke-width="2.2444" stroke-linecap="round" stroke-miterlimit="10" points="
		15.194,164.505 10.705,164.505 8.46,90.438 12.949,90.438 	"/>
	<polygon fill="#754C24" stroke="#000000" stroke-width="2.2444" stroke-linecap="round" stroke-miterlimit="10" points="
		38.147,162.26 33.658,162.26 34.906,90.438 39.394,90.438 	"/>
	<polygon fill="#754C24" stroke="#000000" stroke-width="2.5202" stroke-linecap="round" stroke-miterlimit="10" points="
		43.111,92.562 5.308,94.638 3.908,52.825 46.192,51.677 	"/>
	<circle fill="#FFFFFF" stroke="#000000" stroke-width="1.705" stroke-miterlimit="10" cx="25.049" cy="73.204" r="16.339"/>
	<polyline fill="#754C24" stroke="#000000" stroke-width="1.9058" stroke-miterlimit="10" points="22.584,19.838 23.802,23.819 
		26.13,19.838 	"/>
	
		<line fill="#754C24" stroke="#000000" stroke-width="1.9058" stroke-miterlimit="10" x1="18.295" y1="28.831" x2="18.295" y2="41.946"/>
	
		<line fill="#754C24" stroke="#000000" stroke-width="1.9058" stroke-miterlimit="10" x1="29.519" y1="29.58" x2="30.578" y2="41.946"/>
	<circle cx="21.747" cy="16.423" r="1.546"/>
	<circle cx="26.406" cy="16.423" r="1.546"/>
	
		<rect x="6.221" y="160.015" fill="#754C24" stroke="#000000" stroke-width="2.2444" stroke-linecap="round" stroke-miterlimit="10" width="35.911" height="7.125"/>
	
		<rect x="2.287" y="163.578" fill="#754C24" stroke="#000000" stroke-width="2.2444" stroke-linecap="round" stroke-miterlimit="10" width="44.141" height="14.382"/>
</g>
</svg>
