<?xml version="1.0" encoding="utf-8"?>
<!-- Generator: Adobe Illustrator 16.0.0, SVG Export Plug-In . SVG Version: 6.00 Build 0)  -->
<!DOCTYPE svg PUBLIC "-//W3C//DTD SVG 1.1//EN" "http://www.w3.org/Graphics/SVG/1.1/DTD/svg11.dtd">
<svg version="1.1" id="Layer_1" xmlns="http://www.w3.org/2000/svg" xmlns:xlink="http://www.w3.org/1999/xlink" x="0px" y="0px"
	 width="109.919px" height="35.389px" viewBox="0 0 109.919 35.389" enable-background="new 0 0 109.919 35.389"
	 xml:space="preserve">
<g>
	<defs>
		<polygon id="SVGID_1_" points="65.501,33.44 1.458,20.713 2.326,-1.038 45.274,-4.295 101.944,6.019 107.839,27.032 		"/>
	</defs>
	<clipPath id="SVGID_2_">
		<use xlink:href="#SVGID_1_"  overflow="visible"/>
	</clipPath>
	<g clip-path="url(#SVGID_2_)">
		
			<ellipse transform="matrix(0.851 0.5252 -0.5252 0.851 10.1758 -23.8259)" fill="#FCEE21" stroke="#FBB03B" stroke-width="0.977" stroke-linejoin="bevel" stroke-miterlimit="10" cx="47.071" cy="6.018" rx="3.094" ry="2.693"/>
		
			<ellipse transform="matrix(0.975 -0.2221 0.2221 0.975 -2.788 10.6101)" fill="#FCEE21" stroke="#FBB03B" stroke-width="0.977" stroke-linejoin="bevel" stroke-miterlimit="10" cx="45.791" cy="17.704" rx="3.094" ry="2.695"/>
		
			<ellipse transform="matrix(0.2221 0.975 -0.975 0.2221 54.841 -39.2564)" fill="#FCEE21" stroke="#FBB03B" stroke-width="0.977" stroke-linejoin="bevel" stroke-miterlimit="10" cx="52.021" cy="14.739" rx="3.094" ry="2.694"/>
		
			<ellipse transform="matrix(0.8466 0.5322 -0.5322 0.8466 12.8404 -26.324)" fill="#FCEE21" stroke="#FBB03B" stroke-width="0.977" stroke-linejoin="bevel" stroke-miterlimit="10" cx="52.088" cy="9.114" rx="3.094" ry="2.694"/>
		
			<ellipse transform="matrix(-0.6473 0.7622 -0.7622 -0.6473 72.155 3.2179)" fill="#FCEE21" stroke="#FBB03B" stroke-width="0.977" stroke-linejoin="bevel" stroke-miterlimit="10" cx="35.333" cy="18.302" rx="3.093" ry="2.694"/>
		
			<ellipse transform="matrix(-0.6472 0.7623 -0.7623 -0.6472 73.9781 -5.2387)" fill="#FCEE21" stroke="#FBB03B" stroke-width="0.977" stroke-linejoin="bevel" stroke-miterlimit="10" cx="38.201" cy="14.498" rx="3.094" ry="2.694"/>
		
			<ellipse transform="matrix(-0.9973 0.0729 -0.0729 -0.9973 86.0379 19.441)" fill="#FCEE21" stroke="#FBB03B" stroke-width="0.977" stroke-linejoin="bevel" stroke-miterlimit="10" cx="42.664" cy="11.291" rx="3.094" ry="2.694"/>
		
			<ellipse transform="matrix(-0.6536 0.7568 -0.7568 -0.6536 88.9645 -16.3106)" fill="#FCEE21" stroke="#FBB03B" stroke-width="0.977" stroke-linejoin="bevel" stroke-miterlimit="10" cx="48.215" cy="12.204" rx="3.094" ry="2.693"/>
		
			<ellipse transform="matrix(0.2379 0.9713 -0.9713 0.2379 57.5267 -34.7629)" fill="#FCEE21" stroke="#FBB03B" stroke-width="0.977" stroke-linejoin="bevel" stroke-miterlimit="10" cx="50.917" cy="19.278" rx="3.095" ry="2.694"/>
		
			<ellipse transform="matrix(0.2377 0.9713 -0.9713 0.2377 64.6092 -40.9457)" fill="#FCEE21" stroke="#FBB03B" stroke-width="0.977" stroke-linejoin="bevel" stroke-miterlimit="10" cx="58.391" cy="20.689" rx="3.094" ry="2.694"/>
		
			<ellipse transform="matrix(0.238 0.9713 -0.9713 0.238 54.6455 -30.7504)" fill="#FCEE21" stroke="#FBB03B" stroke-width="0.977" stroke-linejoin="bevel" stroke-miterlimit="10" cx="46.92" cy="19.451" rx="3.094" ry="2.694"/>
		
			<ellipse transform="matrix(0.8506 0.5259 -0.5259 0.8506 20.2922 -17.9936)" fill="#FCEE21" stroke="#FBB03B" stroke-width="0.977" stroke-linejoin="bevel" stroke-miterlimit="10" cx="41.805" cy="26.706" rx="3.094" ry="2.694"/>
		
			<ellipse transform="matrix(-0.5259 0.8506 -0.8506 -0.5259 98.3756 3.0969)" fill="#FCEE21" stroke="#FBB03B" stroke-width="0.977" stroke-linejoin="bevel" stroke-miterlimit="10" cx="48.325" cy="28.966" rx="3.094" ry="2.694"/>
		
			<ellipse transform="matrix(0.2298 0.9732 -0.9732 0.2298 64.6325 -31.66)" fill="#FCEE21" stroke="#FBB03B" stroke-width="0.977" stroke-linejoin="bevel" stroke-miterlimit="10" cx="52.319" cy="25.004" rx="3.094" ry="2.694"/>
		
			<ellipse transform="matrix(-0.996 0.089 -0.089 -0.996 108.4487 43.0911)" fill="#FCEE21" stroke="#FBB03B" stroke-width="0.977" stroke-linejoin="bevel" stroke-miterlimit="10" cx="53.263" cy="23.964" rx="3.094" ry="2.694"/>
		
			<ellipse transform="matrix(-0.6478 0.7618 -0.7618 -0.6478 88.4697 -13.2219)" fill="#FCEE21" stroke="#FBB03B" stroke-width="0.977" stroke-linejoin="bevel" stroke-miterlimit="10" cx="47.291" cy="13.838" rx="3.094" ry="2.694"/>
		
			<ellipse transform="matrix(-0.2847 -0.9586 0.9586 -0.2847 49.5308 55.9779)" fill="#FCEE21" stroke="#FBB03B" stroke-width="0.977" stroke-linejoin="bevel" stroke-miterlimit="10" cx="45.65" cy="9.51" rx="3.094" ry="2.694"/>
		
			<ellipse transform="matrix(0.8509 0.5253 -0.5253 0.8509 20.3368 -17.6252)" fill="#FCEE21" stroke="#FBB03B" stroke-width="0.977" stroke-linejoin="bevel" stroke-miterlimit="10" cx="41.217" cy="27.013" rx="3.094" ry="2.694"/>
		
			<ellipse transform="matrix(0.8465 0.5323 -0.5323 0.8465 23.1233 -19.9913)" fill="#FCEE21" stroke="#FBB03B" stroke-width="0.977" stroke-linejoin="bevel" stroke-miterlimit="10" cx="46.235" cy="30.11" rx="3.094" ry="2.694"/>
		
			<ellipse transform="matrix(-0.6474 0.7621 -0.7621 -0.6474 97.9505 12.0959)" fill="#FCEE21" stroke="#FBB03B" stroke-width="0.977" stroke-linejoin="bevel" stroke-miterlimit="10" cx="46.177" cy="28.706" rx="3.094" ry="2.694"/>
		
			<ellipse transform="matrix(0.0729 0.9973 -0.9973 0.0729 57.8917 -10.9168)" fill="#FCEE21" stroke="#FBB03B" stroke-width="0.977" stroke-linejoin="bevel" stroke-miterlimit="10" cx="34.818" cy="25.681" rx="3.094" ry="2.694"/>
		
			<ellipse transform="matrix(-0.2846 -0.9587 0.9587 -0.2846 21.8758 77.3374)" fill="#FCEE21" stroke="#FBB03B" stroke-width="0.977" stroke-linejoin="bevel" stroke-miterlimit="10" cx="39.796" cy="30.506" rx="3.094" ry="2.695"/>
		
			<ellipse transform="matrix(-0.3 -0.9539 0.9539 -0.3 24.667 63.2503)" fill="#FCEE21" stroke="#FBB03B" stroke-width="0.977" stroke-linejoin="bevel" stroke-miterlimit="10" cx="35.539" cy="22.575" rx="3.094" ry="2.694"/>
		
			<ellipse transform="matrix(-0.8828 -0.4697 0.4697 -0.8828 76.2838 48.1822)" fill="#FCEE21" stroke="#FBB03B" stroke-width="0.977" stroke-linejoin="bevel" stroke-miterlimit="10" cx="44.152" cy="14.575" rx="3.093" ry="2.694"/>
		
			<ellipse transform="matrix(0.4923 0.8704 -0.8704 0.4923 42.4459 -46.6978)" fill="#FCEE21" stroke="#FBB03B" stroke-width="0.977" stroke-linejoin="bevel" stroke-miterlimit="10" cx="61.255" cy="13.038" rx="3.094" ry="2.693"/>
		
			<ellipse transform="matrix(0.9614 0.2752 -0.2752 0.9614 8.3403 -14.1237)" fill="#FCEE21" stroke="#FBB03B" stroke-width="0.977" stroke-linejoin="bevel" stroke-miterlimit="10" cx="54.501" cy="22.659" rx="3.094" ry="2.694"/>
		
			<ellipse transform="matrix(-0.2755 0.9613 -0.9613 -0.2755 100.4748 -29.5925)" fill="#FCEE21" stroke="#FBB03B" stroke-width="0.977" stroke-linejoin="bevel" stroke-miterlimit="10" cx="61.389" cy="23.065" rx="3.094" ry="2.695"/>
		
			<ellipse transform="matrix(0.4851 0.8744 -0.8744 0.4851 48.922 -46.7479)" fill="#FCEE21" stroke="#FBB03B" stroke-width="0.977" stroke-linejoin="bevel" stroke-miterlimit="10" cx="64.158" cy="18.169" rx="3.094" ry="2.693"/>
		
			<ellipse transform="matrix(-0.9345 0.3559 -0.3559 -0.9345 131.3476 9.6619)" fill="#FCEE21" stroke="#FBB03B" stroke-width="0.977" stroke-linejoin="bevel" stroke-miterlimit="10" cx="64.785" cy="16.912" rx="3.094" ry="2.694"/>
		
			<ellipse transform="matrix(-0.909 -0.4168 0.4168 -0.909 98.2388 52.5172)" fill="#FCEE21" stroke="#FBB03B" stroke-width="0.977" stroke-linejoin="bevel" stroke-miterlimit="10" cx="54.853" cy="15.534" rx="3.094" ry="2.694"/>
		
			<ellipse transform="matrix(-0.9089 -0.417 0.417 -0.9089 102.1826 44.2947)" fill="#FCEE21" stroke="#FBB03B" stroke-width="0.977" stroke-linejoin="bevel" stroke-miterlimit="10" cx="55.929" cy="10.986" rx="3.094" ry="2.694"/>
		
			<ellipse transform="matrix(-0.9375 0.348 -0.348 -0.9375 121.4628 16.2016)" fill="#FCEE21" stroke="#FBB03B" stroke-width="0.977" stroke-linejoin="bevel" stroke-miterlimit="10" cx="59.276" cy="19.009" rx="3.094" ry="2.694"/>
		
			<ellipse transform="matrix(-0.2598 0.9657 -0.9657 -0.2598 98.9584 -22.838)" fill="#FCEE21" stroke="#FBB03B" stroke-width="0.977" stroke-linejoin="bevel" stroke-miterlimit="10" cx="58.232" cy="26.509" rx="3.094" ry="2.694"/>
		
			<ellipse transform="matrix(-0.2597 0.9657 -0.9657 -0.2597 92.7279 -21.6129)" fill="#FCEE21" stroke="#FBB03B" stroke-width="0.977" stroke-linejoin="bevel" stroke-miterlimit="10" cx="54.648" cy="24.735" rx="3.094" ry="2.695"/>
		
			<ellipse transform="matrix(-0.9349 0.355 -0.355 -0.9349 118.6987 18.2115)" fill="#FCEE21" stroke="#FBB03B" stroke-width="0.977" stroke-linejoin="bevel" stroke-miterlimit="10" cx="57.678" cy="19.996" rx="3.094" ry="2.694"/>
		
			<ellipse transform="matrix(-0.9348 0.3553 -0.3553 -0.9348 156.3751 12.2523)" fill="#FCEE21" stroke="#FBB03B" stroke-width="0.977" stroke-linejoin="bevel" stroke-miterlimit="10" cx="77.062" cy="20.485" rx="3.093" ry="2.693"/>
		
			<ellipse transform="matrix(0.2128 -0.9771 0.9771 0.2128 30.8583 69.1254)" fill="#FCEE21" stroke="#FBB03B" stroke-width="0.977" stroke-linejoin="bevel" stroke-miterlimit="10" cx="58.327" cy="15.413" rx="3.094" ry="2.694"/>
		
			<ellipse transform="matrix(0.238 0.9713 -0.9713 0.238 100.6829 -65.4036)" fill="#FCEE21" stroke="#FBB03B" stroke-width="0.977" stroke-linejoin="bevel" stroke-miterlimit="10" cx="92.022" cy="31.462" rx="3.094" ry="2.694"/>
		
			<ellipse transform="matrix(0.4923 0.8704 -0.8704 0.4923 68.8977 -70.5027)" fill="#FCEE21" stroke="#FBB03B" stroke-width="0.977" stroke-linejoin="bevel" stroke-miterlimit="10" cx="94.888" cy="23.812" rx="3.094" ry="2.695"/>
		
			<ellipse transform="matrix(0.4852 0.8744 -0.8744 0.4852 75.6516 -70.6096)" fill="#FCEE21" stroke="#FBB03B" stroke-width="0.977" stroke-linejoin="bevel" stroke-miterlimit="10" cx="97.791" cy="28.942" rx="3.094" ry="2.694"/>
		
			<ellipse transform="matrix(-0.9345 0.3559 -0.3559 -0.9345 200.2455 18.5351)" fill="#FCEE21" stroke="#FBB03B" stroke-width="0.977" stroke-linejoin="bevel" stroke-miterlimit="10" cx="98.418" cy="27.685" rx="3.094" ry="2.694"/>
		
			<ellipse transform="matrix(-0.9345 0.3559 -0.3559 -0.9345 205.3314 7.8534)" fill="#FCEE21" stroke="#FBB03B" stroke-width="0.977" stroke-linejoin="bevel" stroke-miterlimit="10" cx="101.943" cy="22.812" rx="3.094" ry="2.694"/>
		
			<ellipse transform="matrix(-0.9375 0.3479 -0.3479 -0.9375 190.3721 25.3848)" fill="#FCEE21" stroke="#FBB03B" stroke-width="0.977" stroke-linejoin="bevel" stroke-miterlimit="10" cx="92.907" cy="29.782" rx="3.094" ry="2.693"/>
		
			<ellipse transform="matrix(-0.9348 0.3553 -0.3553 -0.9348 187.5955 27.0872)" fill="#FCEE21" stroke="#FBB03B" stroke-width="0.977" stroke-linejoin="bevel" stroke-miterlimit="10" cx="91.311" cy="30.769" rx="3.093" ry="2.693"/>
		
			<ellipse transform="matrix(0.2128 -0.9771 0.9771 0.2128 46.8089 110.4696)" fill="#FCEE21" stroke="#FBB03B" stroke-width="0.977" stroke-linejoin="bevel" stroke-miterlimit="10" cx="91.96" cy="26.186" rx="3.094" ry="2.694"/>
		
			<ellipse transform="matrix(0.2128 -0.9771 0.9771 0.2128 17.0435 57.4926)" fill="#FCEE21" stroke="#FBB03B" stroke-width="0.977" stroke-linejoin="bevel" stroke-miterlimit="10" cx="44.201" cy="18.169" rx="3.094" ry="2.696"/>
		
			<ellipse transform="matrix(-0.547 -0.8371 0.8371 -0.547 113.2979 113.8986)" fill="#FCEE21" stroke="#FBB03B" stroke-width="0.977" stroke-linejoin="bevel" stroke-miterlimit="10" cx="87.465" cy="26.296" rx="3.094" ry="2.694"/>
		
			<ellipse transform="matrix(0.2377 0.9713 -0.9713 0.2377 48.7364 -24.2771)" fill="#FCEE21" stroke="#FBB03B" stroke-width="0.977" stroke-linejoin="bevel" stroke-miterlimit="10" cx="39.835" cy="18.912" rx="3.094" ry="2.694"/>
		
			<ellipse transform="matrix(0.2377 0.9713 -0.9713 0.2377 40.5344 -8.317)" fill="#FCEE21" stroke="#FBB03B" stroke-width="0.977" stroke-linejoin="bevel" stroke-miterlimit="10" cx="25.566" cy="21.666" rx="3.094" ry="2.693"/>
		
			<ellipse transform="matrix(0.2379 0.9713 -0.9713 0.2379 37.1477 -3.7619)" fill="#FCEE21" stroke="#FBB03B" stroke-width="0.977" stroke-linejoin="bevel" stroke-miterlimit="10" cx="20.971" cy="21.792" rx="3.095" ry="2.694"/>
		
			<ellipse transform="matrix(-0.996 0.0889 -0.0889 -0.996 86.2952 43.3548)" fill="#FCEE21" stroke="#FBB03B" stroke-width="0.977" stroke-linejoin="bevel" stroke-miterlimit="10" cx="42.183" cy="23.598" rx="3.094" ry="2.694"/>
		
			<ellipse transform="matrix(-0.6479 0.7617 -0.7617 -0.6479 69.934 -5.3804)" fill="#FCEE21" stroke="#FBB03B" stroke-width="0.977" stroke-linejoin="bevel" stroke-miterlimit="10" cx="36.21" cy="13.472" rx="3.094" ry="2.693"/>
		
			<ellipse transform="matrix(-0.3847 0.923 -0.923 -0.3847 43.9024 13.4127)" fill="#FCEE21" stroke="#FBB03B" stroke-width="0.977" stroke-linejoin="bevel" stroke-miterlimit="10" cx="17.481" cy="21.338" rx="3.094" ry="2.694"/>
		
			<ellipse transform="matrix(-0.3925 0.9198 -0.9198 -0.3925 45.8151 23.2991)" fill="#FCEE21" stroke="#FBB03B" stroke-width="0.977" stroke-linejoin="bevel" stroke-miterlimit="10" cx="15.213" cy="26.78" rx="3.094" ry="2.694"/>
		
			<ellipse transform="matrix(-0.9735 0.2288 -0.2288 -0.9735 38.4959 25.1531)" fill="#FCEE21" stroke="#FBB03B" stroke-width="0.977" stroke-linejoin="bevel" stroke-miterlimit="10" cx="17.79" cy="14.809" rx="3.094" ry="2.694"/>
		
			<ellipse transform="matrix(-0.9734 0.229 -0.229 -0.9734 31.4912 20.753)" fill="#FCEE21" stroke="#FBB03B" stroke-width="0.977" stroke-linejoin="bevel" stroke-miterlimit="10" cx="14.542" cy="12.204" rx="3.094" ry="2.694"/>
		
			<ellipse transform="matrix(-0.2289 -0.9735 0.9735 -0.2289 -3.113 33.1658)" fill="#FCEE21" stroke="#FBB03B" stroke-width="0.977" stroke-linejoin="bevel" stroke-miterlimit="10" cx="11.58" cy="17.816" rx="3.093" ry="2.694"/>
		
			<ellipse transform="matrix(-0.8502 -0.5264 0.5264 -0.8502 9.0331 49.454)" fill="#FCEE21" stroke="#FBB03B" stroke-width="0.977" stroke-linejoin="bevel" stroke-miterlimit="10" cx="11.552" cy="23.442" rx="3.093" ry="2.694"/>
		
			<ellipse transform="matrix(-0.8543 -0.5198 0.5198 -0.8543 6.314 47.3441)" fill="#FCEE21" stroke="#FBB03B" stroke-width="0.977" stroke-linejoin="bevel" stroke-miterlimit="10" cx="9.792" cy="22.787" rx="3.094" ry="2.694"/>
		
			<ellipse transform="matrix(0.9018 -0.4322 0.4322 0.9018 -7.4969 7.9798)" fill="#FCEE21" stroke="#FBB03B" stroke-width="0.977" stroke-linejoin="bevel" stroke-miterlimit="10" cx="13.809" cy="20.484" rx="3.093" ry="2.694"/>
		
			<ellipse transform="matrix(-0.8542 -0.52 0.52 -0.8542 12.6538 29.1217)" fill="#FCEE21" stroke="#FBB03B" stroke-width="0.977" stroke-linejoin="bevel" stroke-miterlimit="10" cx="10.41" cy="12.787" rx="3.094" ry="2.694"/>
		
			<ellipse transform="matrix(-0.8543 -0.5198 0.5198 -0.8543 7.2358 36.9739)" fill="#FCEE21" stroke="#FBB03B" stroke-width="0.977" stroke-linejoin="bevel" stroke-miterlimit="10" cx="8.801" cy="17.473" rx="3.094" ry="2.694"/>
		
			<ellipse transform="matrix(-0.6479 0.7617 -0.7617 -0.6479 62.5393 8.9184)" fill="#FCEE21" stroke="#FBB03B" stroke-width="0.977" stroke-linejoin="bevel" stroke-miterlimit="10" cx="29.208" cy="18.913" rx="3.094" ry="2.694"/>
		
			<ellipse transform="matrix(-0.7618 -0.6478 0.6478 -0.7618 64.7321 63.6908)" fill="#FCEE21" stroke="#FBB03B" stroke-width="0.977" stroke-linejoin="bevel" stroke-miterlimit="10" cx="44.076" cy="19.944" rx="3.094" ry="2.694"/>
		
			<ellipse transform="matrix(-0.9967 0.0807 -0.0807 -0.9967 96.6039 45.0754)" fill="#FCEE21" stroke="#FBB03B" stroke-width="0.977" stroke-linejoin="bevel" stroke-miterlimit="10" cx="47.392" cy="24.489" rx="3.094" ry="2.694"/>
		
			<ellipse transform="matrix(0.8507 0.5257 -0.5257 0.8507 24.4387 -21.1289)" fill="#FCEE21" stroke="#FBB03B" stroke-width="0.977" stroke-linejoin="bevel" stroke-miterlimit="10" cx="49.41" cy="32.452" rx="3.094" ry="2.694"/>
		
			<ellipse transform="matrix(-0.5257 0.8507 -0.8507 -0.5257 114.8574 5.3776)" fill="#FCEE21" stroke="#FBB03B" stroke-width="0.977" stroke-linejoin="bevel" stroke-miterlimit="10" cx="55.929" cy="34.711" rx="3.094" ry="2.694"/>
		
			<ellipse transform="matrix(0.2295 0.9733 -0.9733 0.2295 76.0996 -34.6317)" fill="#FCEE21" stroke="#FBB03B" stroke-width="0.977" stroke-linejoin="bevel" stroke-miterlimit="10" cx="59.924" cy="30.75" rx="3.093" ry="2.694"/>
		
			<ellipse transform="matrix(-0.996 0.089 -0.089 -0.996 101.9892 54.14)" fill="#FCEE21" stroke="#FBB03B" stroke-width="0.977" stroke-linejoin="bevel" stroke-miterlimit="10" cx="49.788" cy="29.344" rx="3.094" ry="2.694"/>
		
			<ellipse transform="matrix(-0.9967 0.0806 -0.0806 -0.9967 112.2525 55.9346)" fill="#FCEE21" stroke="#FBB03B" stroke-width="0.977" stroke-linejoin="bevel" stroke-miterlimit="10" cx="54.997" cy="30.234" rx="3.094" ry="2.694"/>
		
			<ellipse transform="matrix(-0.2127 0.9771 -0.9771 -0.2127 105.3328 -34.5057)" fill="#FCEE21" stroke="#FBB03B" stroke-width="0.977" stroke-linejoin="bevel" stroke-miterlimit="10" cx="66.567" cy="25.182" rx="3.094" ry="2.694"/>
		
			<ellipse transform="matrix(-0.2209 0.9753 -0.9753 -0.2209 98.0426 -25.5294)" fill="#FCEE21" stroke="#FBB03B" stroke-width="0.977" stroke-linejoin="bevel" stroke-miterlimit="10" cx="59.218" cy="26.394" rx="3.094" ry="2.694"/>
		
			<ellipse transform="matrix(-0.934 -0.3573 0.3573 -0.934 107.8065 71.6655)" fill="#FCEE21" stroke="#FBB03B" stroke-width="0.977" stroke-linejoin="bevel" stroke-miterlimit="10" cx="60.523" cy="25.874" rx="3.094" ry="2.695"/>
		
			<ellipse transform="matrix(0.0603 0.9982 -0.9982 0.0603 87.6587 -53.9827)" fill="#FCEE21" stroke="#FBB03B" stroke-width="0.977" stroke-linejoin="bevel" stroke-miterlimit="10" cx="72.5" cy="19.565" rx="3.094" ry="2.693"/>
		
			<ellipse transform="matrix(-0.9924 -0.1228 0.1228 -0.9924 77.9894 50.1572)" fill="#FCEE21" stroke="#FBB03B" stroke-width="0.977" stroke-linejoin="bevel" stroke-miterlimit="10" cx="40.54" cy="22.676" rx="3.094" ry="2.693"/>
		
			<ellipse transform="matrix(-0.9924 -0.1228 0.1228 -0.9924 71.3964 56.904)" fill="#FCEE21" stroke="#FBB03B" stroke-width="0.977" stroke-linejoin="bevel" stroke-miterlimit="10" cx="37.452" cy="26.252" rx="3.094" ry="2.694"/>
		
			<ellipse transform="matrix(-0.9924 -0.1228 0.1228 -0.9924 52.1731 51.8443)" fill="#FCEE21" stroke="#FBB03B" stroke-width="0.977" stroke-linejoin="bevel" stroke-miterlimit="10" cx="27.684" cy="24.314" rx="3.094" ry="2.695"/>
		
			<ellipse transform="matrix(-0.7937 0.6083 -0.6083 -0.7937 73.0771 -1.7423)" fill="#FCEE21" stroke="#FBB03B" stroke-width="0.977" stroke-linejoin="bevel" stroke-miterlimit="10" cx="36.834" cy="11.52" rx="3.094" ry="2.694"/>
		
			<ellipse transform="matrix(-0.6085 -0.7936 0.7936 -0.6085 38.7808 52.7571)" fill="#FCEE21" stroke="#FBB03B" stroke-width="0.977" stroke-linejoin="bevel" stroke-miterlimit="10" cx="32.405" cy="16.812" rx="3.094" ry="2.694"/>
		
			<ellipse transform="matrix(-0.9914 -0.1311 0.1311 -0.9914 66.1995 48.2648)" fill="#FCEE21" stroke="#FBB03B" stroke-width="0.977" stroke-linejoin="bevel" stroke-miterlimit="10" cx="34.689" cy="21.953" rx="3.094" ry="2.694"/>
		
			<ellipse transform="matrix(0.8763 -0.4818 0.4818 0.8763 -2.4911 22.3908)" fill="#FCEE21" stroke="#FBB03B" stroke-width="0.977" stroke-linejoin="bevel" stroke-miterlimit="10" cx="42.348" cy="16.045" rx="3.094" ry="2.695"/>
		
			<ellipse transform="matrix(0.2789 -0.9603 0.9603 0.2789 9.7894 48.0977)" fill="#FCEE21" stroke="#FBB03B" stroke-width="0.977" stroke-linejoin="bevel" stroke-miterlimit="10" cx="36.922" cy="17.53" rx="3.093" ry="2.693"/>
		
			<ellipse transform="matrix(-0.6211 -0.7838 0.7838 -0.6211 41.5115 44.5202)" fill="#FCEE21" stroke="#FBB03B" stroke-width="0.977" stroke-linejoin="bevel" stroke-miterlimit="10" cx="31.518" cy="12.225" rx="3.094" ry="2.694"/>
		
			<ellipse transform="matrix(-0.6211 -0.7838 0.7838 -0.6211 48.7088 44.3552)" fill="#FCEE21" stroke="#FBB03B" stroke-width="0.977" stroke-linejoin="bevel" stroke-miterlimit="10" cx="35.077" cy="10.402" rx="3.094" ry="2.695"/>
		
			<ellipse transform="matrix(0.4633 -0.8862 0.8862 0.4633 15.1502 40.5689)" fill="#FCEE21" stroke="#FBB03B" stroke-width="0.977" stroke-linejoin="bevel" stroke-miterlimit="10" cx="41.069" cy="7.776" rx="3.094" ry="2.695"/>
		
			<ellipse transform="matrix(0.2714 -0.9625 0.9625 0.2714 11.9451 47.097)" fill="#FCEE21" stroke="#FBB03B" stroke-width="0.977" stroke-linejoin="bevel" stroke-miterlimit="10" cx="37.081" cy="15.659" rx="3.094" ry="2.694"/>
		
			<ellipse transform="matrix(0.6584 0.7527 -0.7527 0.6584 28.0242 -23.9308)" fill="#FCEE21" stroke="#FBB03B" stroke-width="0.977" stroke-linejoin="bevel" stroke-miterlimit="10" cx="40.377" cy="18.909" rx="3.093" ry="2.695"/>
		
			<ellipse transform="matrix(0.9983 0.059 -0.059 0.9983 0.8767 -2.3152)" fill="#FCEE21" stroke="#FBB03B" stroke-width="0.977" stroke-linejoin="bevel" stroke-miterlimit="10" cx="39.627" cy="13.682" rx="3.094" ry="2.693"/>
		
			<ellipse transform="matrix(0.9983 0.059 -0.059 0.9983 0.6136 -2.2137)" fill="#FCEE21" stroke="#FBB03B" stroke-width="0.977" stroke-linejoin="bevel" stroke-miterlimit="10" cx="37.777" cy="9.279" rx="3.094" ry="2.693"/>
		
			<ellipse transform="matrix(-0.8104 -0.5858 0.5858 -0.8104 31.7452 54.6866)" fill="#FCEE21" stroke="#FBB03B" stroke-width="0.977" stroke-linejoin="bevel" stroke-miterlimit="10" cx="24.721" cy="22.207" rx="3.094" ry="2.694"/>
		
			<ellipse transform="matrix(-0.8053 -0.5929 0.5929 -0.8053 24.8853 45.6781)" fill="#FCEE21" stroke="#FBB03B" stroke-width="0.977" stroke-linejoin="bevel" stroke-miterlimit="10" cx="19.943" cy="18.753" rx="3.093" ry="2.694"/>
		
			<ellipse transform="matrix(0.7011 -0.7131 0.7131 0.7011 -8.4259 20.2141)" fill="#FCEE21" stroke="#FBB03B" stroke-width="0.977" stroke-linejoin="bevel" stroke-miterlimit="10" cx="19.898" cy="20.157" rx="3.094" ry="2.695"/>
		
			<ellipse fill="#FCEE21" stroke="#FBB03B" stroke-width="0.977" stroke-linejoin="bevel" stroke-miterlimit="10" cx="29.5" cy="17.27" rx="3.094" ry="2.694"/>
		
			<ellipse transform="matrix(0.7071 -0.7071 0.7071 0.7071 -4.2425 21.6659)" fill="#FCEE21" stroke="#FBB03B" stroke-width="0.977" stroke-linejoin="bevel" stroke-miterlimit="10" cx="24.032" cy="15.954" rx="3.094" ry="2.694"/>
		
			<ellipse transform="matrix(0.214 0.9768 -0.9768 0.214 39.1372 -10.9826)" fill="#FCEE21" stroke="#FBB03B" stroke-width="0.977" stroke-linejoin="bevel" stroke-miterlimit="10" cx="26.393" cy="18.828" rx="3.094" ry="2.695"/>
		
			<ellipse transform="matrix(0.2139 0.9768 -0.9768 0.2139 63.1695 -38.5031)" fill="#FCEE21" stroke="#FBB03B" stroke-width="0.977" stroke-linejoin="bevel" stroke-miterlimit="10" cx="55.509" cy="20" rx="3.094" ry="2.695"/>
		<path fill="#FCEE21" stroke="#FBB03B" stroke-width="0.977" stroke-linejoin="bevel" stroke-miterlimit="10" d="M64.233,16.687
			c-1.455,0.318-2.93-0.777-3.295-2.445c-0.365-1.67,0.516-3.281,1.971-3.6c1.451-0.317,2.928,0.777,3.293,2.446
			S65.685,16.368,64.233,16.687z"/>
		
			<ellipse transform="matrix(0.8461 0.533 -0.533 0.8461 11.7492 -12.9233)" fill="#FCEE21" stroke="#FBB03B" stroke-width="0.977" stroke-linejoin="bevel" stroke-miterlimit="10" cx="28.256" cy="13.886" rx="3.094" ry="2.693"/>
		
			<ellipse transform="matrix(-0.9784 0.2066 -0.2066 -0.9784 67.2702 44.0298)" fill="#FCEE21" stroke="#FBB03B" stroke-width="0.977" stroke-linejoin="bevel" stroke-miterlimit="10" cx="31.336" cy="25.527" rx="3.094" ry="2.693"/>
		
			<ellipse transform="matrix(-0.9784 0.2067 -0.2067 -0.9784 66.3573 36.1209)" fill="#FCEE21" stroke="#FBB03B" stroke-width="0.977" stroke-linejoin="bevel" stroke-miterlimit="10" cx="31.292" cy="21.527" rx="3.094" ry="2.694"/>
		
			<ellipse transform="matrix(0.8541 -0.52 0.52 0.8541 -10.6028 20.5702)" fill="#FCEE21" stroke="#FBB03B" stroke-width="0.977" stroke-linejoin="bevel" stroke-miterlimit="10" cx="31.37" cy="29.187" rx="3.094" ry="2.693"/>
		
			<ellipse transform="matrix(-0.471 -0.8821 0.8821 -0.471 -1.1646 41.2245)" fill="#FCEE21" stroke="#FBB03B" stroke-width="0.977" stroke-linejoin="bevel" stroke-miterlimit="10" cx="11.779" cy="20.961" rx="3.094" ry="2.695"/>
		
			<ellipse transform="matrix(-0.471 -0.8821 0.8821 -0.471 8.4616 41.1672)" fill="#FCEE21" stroke="#FBB03B" stroke-width="0.977" stroke-linejoin="bevel" stroke-miterlimit="10" cx="16.575" cy="18.046" rx="3.094" ry="2.695"/>
		
			<ellipse transform="matrix(-0.4709 -0.8822 0.8822 -0.4709 5.4404 30.2082)" fill="#FCEE21" stroke="#FBB03B" stroke-width="0.977" stroke-linejoin="bevel" stroke-miterlimit="10" cx="11.779" cy="13.473" rx="3.094" ry="2.695"/>
		
			<ellipse transform="matrix(-0.9841 -0.1775 0.1775 -0.9841 30.3021 55.4604)" fill="#FCEE21" stroke="#FBB03B" stroke-width="0.977" stroke-linejoin="bevel" stroke-miterlimit="10" cx="17.632" cy="26.375" rx="3.094" ry="2.694"/>
		
			<ellipse transform="matrix(-0.687 -0.7266 0.7266 -0.687 15.8577 53.5705)" fill="#FCEE21" stroke="#FBB03B" stroke-width="0.977" stroke-linejoin="bevel" stroke-miterlimit="10" cx="19.466" cy="23.37" rx="3.094" ry="2.694"/>
		
			<ellipse transform="matrix(0.1865 -0.9825 0.9825 0.1865 -5.2589 46.2621)" fill="#FCEE21" stroke="#FBB03B" stroke-width="0.977" stroke-linejoin="bevel" stroke-miterlimit="10" cx="25.306" cy="26.307" rx="3.094" ry="2.695"/>
		
			<ellipse transform="matrix(0.9824 0.1866 -0.1866 0.9824 4.0619 -4.3389)" fill="#FCEE21" stroke="#FBB03B" stroke-width="0.977" stroke-linejoin="bevel" stroke-miterlimit="10" cx="25.083" cy="19.41" rx="3.093" ry="2.695"/>
		
			<ellipse transform="matrix(0.0281 0.9996 -0.9996 0.0281 41.4822 -1.9401)" fill="#FCEE21" stroke="#FBB03B" stroke-width="0.977" stroke-linejoin="bevel" stroke-miterlimit="10" cx="21.739" cy="20.362" rx="3.093" ry="2.694"/>
		
			<ellipse transform="matrix(0.8222 -0.5692 0.5692 0.8222 -5.1266 21.5192)" fill="#FCEE21" stroke="#FBB03B" stroke-width="0.977" stroke-linejoin="bevel" stroke-miterlimit="10" cx="31.88" cy="18.965" rx="3.094" ry="2.693"/>
		
			<ellipse transform="matrix(0.8689 -0.495 0.495 0.8689 -10.4713 13.8056)" fill="#FCEE21" stroke="#FBB03B" stroke-width="0.977" stroke-linejoin="bevel" stroke-miterlimit="10" cx="20.827" cy="26.671" rx="3.094" ry="2.694"/>
		
			<ellipse transform="matrix(0.3665 0.9304 -0.9304 0.3665 36.6378 -1.6928)" fill="#FCEE21" stroke="#FBB03B" stroke-width="0.977" stroke-linejoin="bevel" stroke-miterlimit="10" cx="19.562" cy="26.058" rx="3.094" ry="2.694"/>
		
			<ellipse transform="matrix(0.3585 0.9335 -0.9335 0.3585 43.3814 -0.0426)" fill="#FCEE21" stroke="#FBB03B" stroke-width="0.977" stroke-linejoin="bevel" stroke-miterlimit="10" cx="21.722" cy="31.543" rx="3.093" ry="2.693"/>
		
			<ellipse transform="matrix(0.9974 -0.0717 0.0717 0.9974 -1.2553 1.6325)" fill="#FCEE21" stroke="#FBB03B" stroke-width="0.977" stroke-linejoin="bevel" stroke-miterlimit="10" cx="22.127" cy="18.313" rx="3.094" ry="2.694"/>
		
			<ellipse transform="matrix(0.9974 -0.0717 0.0717 0.9974 -0.9883 1.5939)" fill="#FCEE21" stroke="#FBB03B" stroke-width="0.977" stroke-linejoin="bevel" stroke-miterlimit="10" cx="21.722" cy="14.572" rx="3.094" ry="2.694"/>
		
			<ellipse transform="matrix(0.9974 -0.0718 0.0718 0.9974 -1.4181 0.4406)" fill="#FCEE21" stroke="#FBB03B" stroke-width="0.977" stroke-linejoin="bevel" stroke-miterlimit="10" cx="5.418" cy="19.943" rx="3.094" ry="2.694"/>
		
			<ellipse transform="matrix(0.0603 0.9982 -0.9982 0.0603 99.6556 -58.6596)" fill="#FCEE21" stroke="#FBB03B" stroke-width="0.977" stroke-linejoin="bevel" stroke-miterlimit="10" cx="80.982" cy="23.598" rx="3.094" ry="2.695"/>
		
			<ellipse transform="matrix(0.7429 0.6694 -0.6694 0.7429 32.8906 -35.1512)" fill="#FCEE21" stroke="#FBB03B" stroke-width="0.977" stroke-linejoin="bevel" stroke-miterlimit="10" cx="62.208" cy="25.244" rx="3.094" ry="2.695"/>
		
			<ellipse transform="matrix(-0.6694 0.7429 -0.7429 -0.6694 135.1527 -2.8826)" fill="#FCEE21" stroke="#FBB03B" stroke-width="0.977" stroke-linejoin="bevel" stroke-miterlimit="10" cx="68.218" cy="28.633" rx="3.093" ry="2.695"/>
		
			<ellipse transform="matrix(0.0518 0.9987 -0.9987 0.0518 94.5012 -48.626)" fill="#FCEE21" stroke="#FBB03B" stroke-width="0.977" stroke-linejoin="bevel" stroke-miterlimit="10" cx="72.856" cy="25.45" rx="3.094" ry="2.695"/>
		
			<ellipse transform="matrix(-0.9959 -0.0904 0.0904 -0.9959 145.4168 55.7773)" fill="#FCEE21" stroke="#FBB03B" stroke-width="0.977" stroke-linejoin="bevel" stroke-miterlimit="10" cx="73.972" cy="24.595" rx="3.095" ry="2.695"/>
		
			<ellipse transform="matrix(-0.9959 -0.0906 0.0906 -0.9959 153.8611 59.7728)" fill="#FCEE21" stroke="#FBB03B" stroke-width="0.977" stroke-linejoin="bevel" stroke-miterlimit="10" cx="78.287" cy="26.395" rx="3.094" ry="2.695"/>
		
			<ellipse transform="matrix(-0.9951 -0.0988 0.0988 -0.9951 133.4903 54.7328)" fill="#FCEE21" stroke="#FBB03B" stroke-width="0.977" stroke-linejoin="bevel" stroke-miterlimit="10" cx="68.101" cy="24.061" rx="3.093" ry="2.694"/>
		
			<ellipse transform="matrix(-0.9951 -0.0987 0.0987 -0.9951 158.9638 60.6489)" fill="#FCEE21" stroke="#FBB03B" stroke-width="0.977" stroke-linejoin="bevel" stroke-miterlimit="10" cx="80.981" cy="26.394" rx="3.093" ry="2.693"/>
		
			<ellipse transform="matrix(-0.6574 0.7535 -0.7535 -0.6574 128.7249 2.1615)" fill="#FCEE21" stroke="#FBB03B" stroke-width="0.977" stroke-linejoin="bevel" stroke-miterlimit="10" cx="63.871" cy="30.342" rx="3.094" ry="2.694"/>
		
			<ellipse transform="matrix(-0.6574 0.7535 -0.7535 -0.6574 122.2881 -1.248)" fill="#FCEE21" stroke="#FBB03B" stroke-width="0.977" stroke-linejoin="bevel" stroke-miterlimit="10" cx="61.428" cy="27.174" rx="3.094" ry="2.694"/>
		
			<ellipse transform="matrix(0.9991 -0.0436 0.0436 0.9991 -0.8357 3.2035)" fill="#FCEE21" stroke="#FBB03B" stroke-width="0.977" stroke-linejoin="bevel" stroke-miterlimit="10" cx="73.088" cy="20.778" rx="3.094" ry="2.695"/>
		
			<ellipse transform="matrix(0.9991 -0.0432 0.0432 0.9991 -0.6138 3.1282)" fill="#FCEE21" stroke="#FBB03B" stroke-width="0.977" stroke-linejoin="bevel" stroke-miterlimit="10" cx="71.996" cy="15.75" rx="3.094" ry="2.695"/>
		
			<ellipse transform="matrix(0.9991 -0.0432 0.0432 0.9991 -0.6592 3.3484)" fill="#FCEE21" stroke="#FBB03B" stroke-width="0.977" stroke-linejoin="bevel" stroke-miterlimit="10" cx="77.062" cy="16.91" rx="3.094" ry="2.695"/>
		
			<ellipse transform="matrix(0.6701 -0.7422 0.7422 0.6701 9.1769 56.8411)" fill="#FCEE21" stroke="#FBB03B" stroke-width="0.977" stroke-linejoin="bevel" stroke-miterlimit="10" cx="68.537" cy="18.096" rx="3.094" ry="2.693"/>
		
			<ellipse transform="matrix(-0.8963 -0.4434 0.4434 -0.8963 106.656 78.4906)" fill="#FCEE21" stroke="#FBB03B" stroke-width="0.977" stroke-linejoin="bevel" stroke-miterlimit="10" cx="62.505" cy="26.775" rx="3.094" ry="2.695"/>
		
			<ellipse transform="matrix(-0.9958 -0.0912 0.0912 -0.9958 129.977 54.4327)" fill="#FCEE21" stroke="#FBB03B" stroke-width="0.977" stroke-linejoin="bevel" stroke-miterlimit="10" cx="66.232" cy="24.246" rx="3.094" ry="2.694"/>
		
			<ellipse transform="matrix(-0.9958 -0.091 0.091 -0.9958 144.965 65.2986)" fill="#FCEE21" stroke="#FBB03B" stroke-width="0.977" stroke-linejoin="bevel" stroke-miterlimit="10" cx="73.972" cy="29.343" rx="3.095" ry="2.693"/>
		
			<ellipse transform="matrix(-0.2209 0.9753 -0.9753 -0.2209 111.5964 -19.3543)" fill="#FCEE21" stroke="#FBB03B" stroke-width="0.977" stroke-linejoin="bevel" stroke-miterlimit="10" cx="63.528" cy="34.895" rx="3.094" ry="2.694"/>
		
			<ellipse transform="matrix(-0.2206 0.9754 -0.9754 -0.2206 116.2198 -27.9615)" fill="#FCEE21" stroke="#FBB03B" stroke-width="0.977" stroke-linejoin="bevel" stroke-miterlimit="10" cx="69.281" cy="32.452" rx="3.094" ry="2.695"/>
		
			<ellipse transform="matrix(-0.9309 -0.3652 0.3652 -0.9309 102.7725 83.9745)" fill="#FCEE21" stroke="#FBB03B" stroke-width="0.977" stroke-linejoin="bevel" stroke-miterlimit="10" cx="59.328" cy="32.268" rx="3.094" ry="2.693"/>
		
			<ellipse transform="matrix(-0.931 -0.3651 0.3651 -0.931 153.9794 87.0461)" fill="#FCEE21" stroke="#FBB03B" stroke-width="0.977" stroke-linejoin="bevel" stroke-miterlimit="10" cx="85.219" cy="28.966" rx="3.093" ry="2.695"/>
		
			<ellipse transform="matrix(-0.9309 -0.3652 0.3652 -0.9309 143.5989 87.8453)" fill="#FCEE21" stroke="#FBB03B" stroke-width="0.977" stroke-linejoin="bevel" stroke-miterlimit="10" cx="80.107" cy="30.342" rx="3.094" ry="2.693"/>
		
			<ellipse transform="matrix(0.2127 -0.9771 0.9771 0.2127 46.792 90.8539)" fill="#FCEE21" stroke="#FBB03B" stroke-width="0.977" stroke-linejoin="bevel" stroke-miterlimit="10" cx="79.776" cy="16.39" rx="3.094" ry="2.694"/>
		
			<ellipse transform="matrix(-0.9348 0.3553 -0.3553 -0.9348 177.0895 11.7607)" fill="#FCEE21" stroke="#FBB03B" stroke-width="0.977" stroke-linejoin="bevel" stroke-miterlimit="10" cx="87.465" cy="22.141" rx="3.093" ry="2.693"/>
		
			<ellipse transform="matrix(0.0603 0.9982 -0.9982 0.0603 99.0868 -62.8094)" fill="#FCEE21" stroke="#FBB03B" stroke-width="0.977" stroke-linejoin="bevel" stroke-miterlimit="10" cx="82.902" cy="21.222" rx="3.094" ry="2.693"/>
		
			<ellipse transform="matrix(0.0603 0.9982 -0.9982 0.0603 101.2233 -70.8932)" fill="#FCEE21" stroke="#FBB03B" stroke-width="0.977" stroke-linejoin="bevel" stroke-miterlimit="10" cx="88.264" cy="18.314" rx="3.094" ry="2.693"/>
		
			<ellipse transform="matrix(0.0603 0.9982 -0.9982 0.0603 111.0841 -67.4866)" fill="#FCEE21" stroke="#FBB03B" stroke-width="0.977" stroke-linejoin="bevel" stroke-miterlimit="10" cx="91.385" cy="25.254" rx="3.094" ry="2.695"/>
		
			<ellipse transform="matrix(0.0603 0.9982 -0.9982 0.0603 115.3454 -76.8939)" fill="#FCEE21" stroke="#FBB03B" stroke-width="0.977" stroke-linejoin="bevel" stroke-miterlimit="10" cx="98.512" cy="22.814" rx="3.094" ry="2.693"/>
		
			<ellipse transform="matrix(0.0518 0.9987 -0.9987 0.0518 106.0191 -57.4439)" fill="#FCEE21" stroke="#FBB03B" stroke-width="0.977" stroke-linejoin="bevel" stroke-miterlimit="10" cx="83.259" cy="27.106" rx="3.094" ry="2.695"/>
		
			<ellipse transform="matrix(-0.9959 -0.0904 0.0904 -0.9959 166.0263 60.0257)" fill="#FCEE21" stroke="#FBB03B" stroke-width="0.977" stroke-linejoin="bevel" stroke-miterlimit="10" cx="84.373" cy="26.251" rx="3.094" ry="2.695"/>
		
			<ellipse transform="matrix(-0.9959 -0.0906 0.0906 -0.9959 183.4404 51.6583)" fill="#FCEE21" stroke="#FBB03B" stroke-width="0.977" stroke-linejoin="bevel" stroke-miterlimit="10" cx="92.893" cy="21.666" rx="3.094" ry="2.694"/>
		
			<ellipse transform="matrix(-0.9959 -0.0904 0.0904 -0.9959 169.1311 44.2641)" fill="#FCEE21" stroke="#FBB03B" stroke-width="0.977" stroke-linejoin="bevel" stroke-miterlimit="10" cx="85.568" cy="18.3" rx="3.094" ry="2.695"/>
		
			<ellipse transform="matrix(-0.9959 -0.0906 0.0906 -0.9959 201.1686 59.8849)" fill="#FCEE21" stroke="#FBB03B" stroke-width="0.977" stroke-linejoin="bevel" stroke-miterlimit="10" cx="101.943" cy="25.377" rx="3.094" ry="2.694"/>
		
			<ellipse transform="matrix(0.9991 -0.0434 0.0434 0.9991 -1.2884 3.2932)" fill="#FCEE21" stroke="#FBB03B" stroke-width="0.977" stroke-linejoin="bevel" stroke-miterlimit="10" cx="75.195" cy="31.318" rx="3.094" ry="2.695"/>
		
			<ellipse transform="matrix(0.2124 -0.9772 0.9772 0.2124 53.3884 102.3325)" fill="#FCEE21" stroke="#FBB03B" stroke-width="0.977" stroke-linejoin="bevel" stroke-miterlimit="10" cx="90.178" cy="18.046" rx="3.094" ry="2.695"/>
		
			<ellipse transform="matrix(-0.9958 -0.0912 0.0912 -0.9958 207.2142 62.4902)" fill="#FCEE21" stroke="#FBB03B" stroke-width="0.977" stroke-linejoin="bevel" stroke-miterlimit="10" cx="105.035" cy="26.51" rx="3.094" ry="2.694"/>
		
			<ellipse transform="matrix(-0.931 -0.365 0.365 -0.931 143.8462 93.6782)" fill="#FCEE21" stroke="#FBB03B" stroke-width="0.977" stroke-linejoin="bevel" stroke-miterlimit="10" cx="80.776" cy="33.245" rx="3.094" ry="2.694"/>
		
			<ellipse transform="matrix(-0.9309 -0.3652 0.3652 -0.9309 184.6585 97.5668)" fill="#FCEE21" stroke="#FBB03B" stroke-width="0.977" stroke-linejoin="bevel" stroke-miterlimit="10" cx="101.557" cy="31.319" rx="3.094" ry="2.694"/>
	</g>
</g>
</svg>
