<?xml version="1.0" encoding="utf-8"?>
<!-- Generator: Adobe Illustrator 16.0.0, SVG Export Plug-In . SVG Version: 6.00 Build 0)  -->
<!DOCTYPE svg PUBLIC "-//W3C//DTD SVG 1.1//EN" "http://www.w3.org/Graphics/SVG/1.1/DTD/svg11.dtd">
<svg version="1.1" id="Layer_1" xmlns="http://www.w3.org/2000/svg" xmlns:xlink="http://www.w3.org/1999/xlink" x="0px" y="0px"
	 width="302.145px" height="229.223px" viewBox="0 0 302.145 229.223" enable-background="new 0 0 302.145 229.223"
	 xml:space="preserve">
<g>
	<polygon points="261.351,29.262 251.092,29.262 251.092,43.532 235.539,43.532 235.539,54.562 221.972,54.562 221.972,68.561 
		202.116,68.561 202.116,81.571 184.349,81.571 184.349,96.005 163.805,96.005 163.805,110.377 148.581,110.377 148.581,126.096 
		142.018,126.25 131.759,126.25 131.759,140.519 116.206,140.519 116.206,151.549 102.639,151.549 102.639,165.548 82.783,165.548 
		82.783,178.558 65.016,178.558 65.016,192.993 44.472,192.993 44.472,207.365 29.248,207.365 29.248,225.993 142.018,225.993 
		150.952,225.993 299.737,226.533 299.737,141.7 299.737,129.005 299.737,122.562 299.737,46.777 299.737,29.262 	"/>
	<g>
		<line fill="none" stroke="#000000" stroke-width="4" stroke-miterlimit="10" x1="38.02" y1="174.772" x2="38.02" y2="223.05"/>
		<line fill="none" stroke="#000000" stroke-width="4" stroke-miterlimit="10" x1="77.238" y1="143.8" x2="74.654" y2="194.481"/>
		
			<line fill="none" stroke="#000000" stroke-width="4" stroke-miterlimit="10" x1="107.092" y1="124.933" x2="109.654" y2="167.05"/>
		<line fill="none" stroke="#000000" stroke-width="4" stroke-miterlimit="10" x1="137.654" y1="98.3" x2="137.654" y2="142.8"/>
		
			<line fill="none" stroke="#000000" stroke-width="4" stroke-miterlimit="10" x1="172.404" y1="66.247" x2="174.654" y2="113.134"/>
		<line fill="none" stroke="#000000" stroke-width="4" stroke-miterlimit="10" x1="208.642" y1="42.082" x2="213.404" y2="86.025"/>
		<line fill="none" stroke="#000000" stroke-width="4" stroke-miterlimit="10" x1="245.154" y1="10.197" x2="244.154" y2="59.3"/>
		<path fill="none" stroke="#000000" stroke-width="4" stroke-linecap="round" stroke-miterlimit="10" d="M18.404,178.757
			c6.5,0.543,19-12.957,0-11.707s-16.5,19.25-6,20.75s17.036-4.951,25.615-13.028s28.994-25.19,39.219-30.972
			s20.229-11.117,29.854-18.867s21.119-19.636,30.562-26.633c9.442-6.997,29.925-23.311,34.75-32.054
			c4.825-8.742,27.49-20.804,36.237-24.165c8.746-3.361,29.87-29.68,36.513-31.885c6.645-2.205,44.917-5.722,44.917-5.722"/>
	</g>
	<line fill="none" stroke="#000000" stroke-width="4" stroke-miterlimit="10" x1="52.561" y1="161.738" x2="52.561" y2="195.778"/>
	<line fill="none" stroke="#000000" stroke-width="4" stroke-miterlimit="10" x1="90.636" y1="136.158" x2="92.404" y2="170.457"/>
	<line fill="none" stroke="#000000" stroke-width="4" stroke-miterlimit="10" x1="120.66" y1="112.967" x2="122.904" y2="144.611"/>
	<line fill="none" stroke="#000000" stroke-width="4" stroke-miterlimit="10" x1="152.383" y1="86.672" x2="155.904" y2="118.028"/>
	<line fill="none" stroke="#000000" stroke-width="4" stroke-miterlimit="10" x1="191.404" y1="50.733" x2="193.904" y2="87.8"/>
	<line fill="none" stroke="#000000" stroke-width="4" stroke-miterlimit="10" x1="223.585" y1="29.818" x2="228.904" y2="59.3"/>
</g>
</svg>
