<?xml version="1.0" encoding="utf-8"?>
<!-- Generator: Adobe Illustrator 16.0.0, SVG Export Plug-In . SVG Version: 6.00 Build 0)  -->
<!DOCTYPE svg PUBLIC "-//W3C//DTD SVG 1.1//EN" "http://www.w3.org/Graphics/SVG/1.1/DTD/svg11.dtd">
<svg version="1.1" id="Layer_1" xmlns="http://www.w3.org/2000/svg" xmlns:xlink="http://www.w3.org/1999/xlink" x="0px" y="0px"
	 width="360px" height="150px" viewBox="0 0 360 150" enable-background="new 0 0 360 150" xml:space="preserve">
<polygon fill="#FFE292" stroke="#BC8600" stroke-width="10" stroke-miterlimit="10" points="299.947,5 299.947,12.455 
	289.315,12.455 289.315,5 273.96,5 273.96,12.455 246.004,12.455 246.004,5 205.842,5 205.842,12.455 188.124,12.455 188.124,5 
	170.011,5 170.011,12.455 154.262,12.455 154.262,5 125.518,5 125.518,12.455 106.225,12.455 106.225,5 90.868,5 90.868,12.455 
	77.481,12.455 77.481,5 22.356,5 22.356,12.455 15.663,12.455 15.663,30.266 5.228,30.266 5.228,60.42 15.663,60.42 15.663,81.213 
	5.228,81.213 5.228,95.627 15.663,95.627 15.663,104.822 5.228,104.822 5.228,145 5.819,145 22.553,145 44.012,145 44.012,138.621 
	56.218,138.621 56.218,145 71.574,145 71.574,138.621 95.199,138.621 95.199,145 120.005,145 120.005,138.621 135.755,138.621 
	135.755,145 185.366,145 185.366,138.621 196.393,138.621 196.393,145 246.004,145 246.004,138.621 260.18,138.621 260.18,145 
	304.673,145 304.673,138.621 345.622,138.621 345.622,131.746 355.229,131.746 355.229,101.51 345.622,101.51 345.622,89.91 
	355.229,89.91 355.229,72.514 345.622,72.514 345.622,56.36 355.229,56.36 355.229,23.225 355.229,14.112 355.229,5 "/>
</svg>
